<?xml version="1.0" ?><!DOCTYPE svg  PUBLIC '-//W3C//DTD SVG 1.1//EN'  'http://www.w3.org/Graphics/SVG/1.1/DTD/svg11.dtd'><svg enable-background="new 0 0 64 64" height="64px" id="Pinterest" version="1.1" viewBox="0 0 64 64" width="64px" xml:space="preserve" xmlns="http://www.w3.org/2000/svg" xmlns:xlink="http://www.w3.org/1999/xlink"><linearGradient gradientTransform="matrix(1 0 0 -1 -1918 -2480)" gradientUnits="userSpaceOnUse" id="Circle_Shadow_1_" x1="1982.0313" x2="1950.0313" y1="-2543.999" y2="-2511.999"><stop offset="0.3163" style="stop-color:#FFFFFF;stop-opacity:0"/><stop offset="0.3508" style="stop-color:#E9E9E9;stop-opacity:0.0504"/><stop offset="0.4543" style="stop-color:#ACACAC;stop-opacity:0.2018"/><stop offset="0.5572" style="stop-color:#787878;stop-opacity:0.3523"/><stop offset="0.6569" style="stop-color:#4D4D4D;stop-opacity:0.4981"/><stop offset="0.7528" style="stop-color:#2B2B2B;stop-opacity:0.6385"/><stop offset="0.8441" style="stop-color:#131313;stop-opacity:0.7719"/><stop offset="0.9286" style="stop-color:#050505;stop-opacity:0.8956"/><stop offset="1" style="stop-color:#000000"/></linearGradient><polygon enable-background="new    " fill="url(#Circle_Shadow_1_)" id="Circle_Shadow" opacity="0.2" points="64.029,64   64.029,30.059 49,15.029 15.059,48.971 30.088,64 "/><circle cx="32" cy="32" fill="#C9151C" id="Circle" r="24"/><g id="P_shadow"><g><defs><circle cx="32.029" cy="32" id="SVGID_1_" r="24"/></defs><clipPath id="SVGID_2_"><use overflow="visible" xlink:href="#SVGID_1_"/></clipPath><linearGradient gradientTransform="matrix(1 0 0 -1 -274 -299)" gradientUnits="userSpaceOnUse" id="SVGID_3_" x1="344.3174" x2="295.7208" y1="-369.9668" y2="-321.3703"><stop offset="0.4847" style="stop-color:#000000;stop-opacity:0"/><stop offset="1" style="stop-color:#000000"/></linearGradient><path clip-path="url(#SVGID_2_)" d="M72.932,52.052    c-0.035-0.034-0.07-0.071-0.105-0.106c-0.036-0.034-0.069-0.07-0.105-0.104c-0.037-0.038-0.074-0.075-0.113-0.112    c-0.031-0.03-0.062-0.063-0.094-0.095c-0.037-0.038-0.074-0.075-0.113-0.112c-0.034-0.035-0.068-0.071-0.104-0.105    c-0.036-0.035-0.069-0.07-0.106-0.105c-0.035-0.035-0.069-0.071-0.105-0.106c-0.036-0.036-0.07-0.072-0.107-0.106    c-0.035-0.035-0.067-0.07-0.104-0.104c-0.037-0.037-0.072-0.074-0.109-0.11c-0.033-0.033-0.066-0.068-0.102-0.102    c-0.036-0.036-0.071-0.073-0.107-0.108c-0.037-0.034-0.07-0.071-0.107-0.106c-0.035-0.034-0.069-0.07-0.105-0.105    c-0.035-0.035-0.07-0.07-0.105-0.105s-0.068-0.07-0.104-0.104c-0.037-0.037-0.073-0.075-0.11-0.11    c-0.035-0.035-0.067-0.07-0.104-0.104c-0.036-0.036-0.07-0.073-0.107-0.109c-0.037-0.033-0.069-0.07-0.105-0.104    c-0.036-0.035-0.07-0.071-0.105-0.106c-0.037-0.034-0.07-0.071-0.106-0.106c-0.034-0.033-0.066-0.067-0.103-0.103    c-0.037-0.036-0.074-0.075-0.113-0.112c-0.034-0.035-0.068-0.07-0.104-0.104c-0.034-0.035-0.067-0.069-0.104-0.104    c-0.035-0.035-0.069-0.07-0.105-0.105s-0.07-0.07-0.105-0.105c-0.037-0.035-0.07-0.072-0.106-0.106    c-0.037-0.036-0.071-0.073-0.108-0.108c-0.033-0.033-0.065-0.068-0.101-0.101c-0.038-0.037-0.074-0.075-0.112-0.112    c-0.033-0.033-0.066-0.068-0.102-0.102c-0.036-0.036-0.071-0.073-0.108-0.108c-0.036-0.034-0.069-0.071-0.106-0.106    c-0.035-0.034-0.069-0.07-0.105-0.105c-0.035-0.035-0.07-0.07-0.105-0.105c-0.036-0.035-0.07-0.071-0.106-0.106    s-0.069-0.071-0.106-0.106c-0.035-0.035-0.068-0.07-0.105-0.105c-0.035-0.035-0.068-0.071-0.105-0.105    c-0.035-0.035-0.069-0.07-0.105-0.105s-0.07-0.071-0.105-0.105c-0.037-0.035-0.07-0.072-0.106-0.107    c-0.036-0.034-0.07-0.071-0.107-0.105c-0.034-0.035-0.067-0.07-0.104-0.104c-0.036-0.036-0.071-0.073-0.108-0.108    c-0.035-0.035-0.068-0.071-0.105-0.104c-0.035-0.035-0.069-0.071-0.105-0.106s-0.07-0.071-0.105-0.106    c-0.037-0.035-0.07-0.07-0.106-0.105c-0.037-0.036-0.071-0.073-0.108-0.107c-0.033-0.033-0.063-0.065-0.097-0.098    c-0.039-0.039-0.076-0.078-0.116-0.116c-0.035-0.034-0.068-0.071-0.104-0.104c-0.035-0.035-0.068-0.07-0.104-0.104    c-0.035-0.034-0.07-0.071-0.105-0.106c-0.036-0.034-0.07-0.07-0.106-0.105c-0.034-0.033-0.067-0.07-0.104-0.104    c-0.036-0.037-0.072-0.075-0.11-0.111c-0.036-0.035-0.069-0.07-0.104-0.105c-0.035-0.033-0.067-0.067-0.104-0.103    c-0.036-0.036-0.072-0.073-0.109-0.108c-0.035-0.035-0.068-0.072-0.104-0.105c-0.036-0.035-0.07-0.071-0.106-0.105    c-0.035-0.035-0.07-0.072-0.105-0.106c-0.037-0.036-0.072-0.073-0.109-0.108c-0.031-0.031-0.063-0.064-0.096-0.098    c-0.04-0.038-0.077-0.078-0.117-0.116c-0.035-0.034-0.068-0.069-0.104-0.104s-0.069-0.07-0.105-0.104    c-0.036-0.035-0.07-0.071-0.105-0.106s-0.068-0.069-0.104-0.104c-0.037-0.036-0.071-0.074-0.11-0.109    c-0.033-0.035-0.066-0.068-0.103-0.104s-0.07-0.072-0.106-0.107c-0.037-0.035-0.072-0.072-0.109-0.109    c-0.035-0.033-0.068-0.068-0.104-0.104s-0.069-0.07-0.106-0.105c-0.035-0.035-0.069-0.071-0.105-0.106s-0.07-0.071-0.105-0.106    c-0.037-0.035-0.072-0.073-0.11-0.108c-0.032-0.032-0.063-0.065-0.097-0.099c-0.039-0.037-0.075-0.075-0.113-0.113    c-0.035-0.034-0.069-0.069-0.104-0.104c-0.037-0.035-0.07-0.072-0.106-0.106c-0.036-0.035-0.069-0.071-0.104-0.104    c-0.037-0.037-0.072-0.074-0.108-0.109c-0.035-0.033-0.069-0.069-0.105-0.104c-0.034-0.034-0.069-0.071-0.104-0.104    c-0.036-0.035-0.07-0.072-0.106-0.106s-0.069-0.071-0.106-0.106c-0.035-0.034-0.069-0.07-0.105-0.105s-0.07-0.07-0.105-0.105    c-0.037-0.035-0.07-0.071-0.106-0.106c-0.035-0.034-0.067-0.069-0.104-0.104s-0.071-0.072-0.108-0.108    c-0.035-0.035-0.069-0.07-0.104-0.104c-0.035-0.035-0.07-0.07-0.105-0.105c-0.036-0.035-0.07-0.071-0.105-0.106    c-0.037-0.034-0.07-0.071-0.106-0.106c-0.036-0.034-0.07-0.07-0.106-0.105c-0.035-0.033-0.066-0.068-0.104-0.104    c-0.037-0.037-0.072-0.074-0.11-0.111c-0.036-0.035-0.069-0.07-0.106-0.105c-0.033-0.033-0.064-0.066-0.1-0.101    c-0.039-0.038-0.076-0.077-0.115-0.114c-0.035-0.035-0.066-0.068-0.103-0.103c-0.036-0.035-0.07-0.071-0.106-0.106    c-0.035-0.035-0.07-0.07-0.105-0.105c-0.036-0.035-0.07-0.072-0.107-0.106c-0.035-0.034-0.068-0.071-0.104-0.104    c-0.035-0.035-0.069-0.071-0.105-0.105c-0.037-0.035-0.072-0.072-0.109-0.109c-0.034-0.033-0.067-0.069-0.104-0.104    c-0.036-0.035-0.07-0.07-0.105-0.105c-0.037-0.035-0.07-0.071-0.106-0.106s-0.069-0.071-0.106-0.106    c-0.035-0.035-0.07-0.072-0.106-0.106c-0.037-0.036-0.072-0.073-0.108-0.108c-0.033-0.031-0.063-0.064-0.098-0.098    c-0.038-0.037-0.073-0.075-0.111-0.111c-0.035-0.035-0.07-0.07-0.105-0.105c-0.036-0.035-0.07-0.072-0.106-0.106    s-0.069-0.071-0.104-0.104c-0.035-0.035-0.069-0.071-0.105-0.105c-0.035-0.035-0.07-0.072-0.107-0.107    c-0.035-0.035-0.069-0.07-0.104-0.105c-0.037-0.036-0.071-0.072-0.108-0.107c-0.035-0.035-0.068-0.07-0.104-0.104    c-0.036-0.035-0.069-0.071-0.106-0.106c-0.035-0.035-0.069-0.07-0.105-0.105c-0.034-0.034-0.066-0.068-0.102-0.104    c-0.039-0.037-0.074-0.074-0.113-0.111c-0.035-0.035-0.069-0.071-0.105-0.105c-0.033-0.033-0.066-0.068-0.103-0.104    c-0.037-0.036-0.072-0.073-0.11-0.109c-0.035-0.035-0.068-0.07-0.104-0.104c-0.036-0.035-0.07-0.071-0.106-0.106    c-0.035-0.034-0.067-0.069-0.104-0.104c-0.037-0.037-0.072-0.074-0.11-0.11c-0.035-0.034-0.069-0.07-0.104-0.104    c-0.035-0.035-0.068-0.07-0.104-0.104c-0.036-0.035-0.07-0.071-0.106-0.106c-0.035-0.035-0.07-0.07-0.105-0.105    c-0.036-0.035-0.07-0.071-0.105-0.106c-0.037-0.034-0.07-0.071-0.107-0.106c-0.034-0.034-0.068-0.07-0.104-0.104    c-0.034-0.034-0.067-0.069-0.103-0.104c-0.039-0.037-0.077-0.077-0.116-0.114c-0.034-0.033-0.065-0.067-0.101-0.101    c-0.037-0.035-0.07-0.071-0.106-0.106s-0.069-0.071-0.106-0.106c-0.035-0.035-0.068-0.07-0.104-0.104    c-0.036-0.035-0.069-0.071-0.104-0.106c-0.037-0.033-0.07-0.07-0.106-0.104c-0.038-0.038-0.074-0.076-0.113-0.113    c-0.032-0.032-0.065-0.065-0.099-0.099c-0.036-0.035-0.069-0.071-0.106-0.106c-0.036-0.036-0.071-0.073-0.11-0.11    c-0.035-0.033-0.067-0.069-0.104-0.104c-0.036-0.035-0.07-0.07-0.105-0.105c-0.037-0.035-0.069-0.071-0.106-0.106    c-0.034-0.034-0.067-0.069-0.103-0.103c-0.037-0.037-0.072-0.074-0.109-0.11s-0.072-0.073-0.109-0.109    c-0.035-0.034-0.068-0.069-0.104-0.103c-0.036-0.036-0.071-0.072-0.107-0.107c-0.035-0.033-0.068-0.07-0.104-0.104    c-0.036-0.035-0.07-0.072-0.107-0.107c-0.035-0.033-0.068-0.07-0.104-0.104c-0.037-0.036-0.072-0.073-0.11-0.109    c-0.035-0.034-0.067-0.068-0.104-0.104c-0.035-0.037-0.07-0.073-0.108-0.109c-0.034-0.034-0.067-0.069-0.103-0.104    c-0.037-0.037-0.074-0.074-0.111-0.11c-0.034-0.034-0.067-0.068-0.104-0.103c-0.035-0.037-0.07-0.074-0.107-0.109    c-0.035-0.033-0.068-0.068-0.104-0.104s-0.069-0.07-0.104-0.105c-0.037-0.036-0.072-0.073-0.11-0.109    c-0.035-0.035-0.069-0.07-0.104-0.104c-0.037-0.037-0.071-0.073-0.108-0.109c-0.033-0.033-0.063-0.066-0.099-0.099    c-0.039-0.039-0.075-0.078-0.115-0.115c-0.033-0.033-0.065-0.067-0.1-0.1c-0.037-0.037-0.072-0.074-0.109-0.11    c-0.036-0.035-0.069-0.071-0.105-0.105c-0.035-0.034-0.068-0.07-0.104-0.104c-0.038-0.037-0.074-0.075-0.112-0.112    c-0.034-0.033-0.065-0.068-0.103-0.102c-0.035-0.036-0.069-0.072-0.106-0.107c-0.035-0.035-0.069-0.071-0.104-0.106    c-0.037-0.036-0.071-0.073-0.108-0.109c-0.036-0.036-0.071-0.072-0.108-0.107c-0.033-0.034-0.068-0.069-0.104-0.104    c-0.036-0.035-0.07-0.072-0.105-0.106c-0.037-0.035-0.07-0.071-0.106-0.106c-0.035-0.035-0.069-0.07-0.104-0.105    c-0.035-0.035-0.07-0.072-0.107-0.107c-0.035-0.036-0.07-0.073-0.107-0.108c-0.035-0.035-0.068-0.071-0.105-0.106    c-0.035-0.035-0.069-0.071-0.105-0.105c-0.035-0.035-0.068-0.07-0.104-0.104c-0.037-0.036-0.071-0.073-0.108-0.108    c-0.036-0.036-0.071-0.073-0.108-0.108c-0.033-0.034-0.066-0.068-0.102-0.102c-0.037-0.036-0.071-0.073-0.107-0.108    c-0.037-0.036-0.072-0.073-0.108-0.108c-0.035-0.034-0.068-0.07-0.104-0.104c-0.037-0.036-0.072-0.073-0.109-0.109    c-0.033-0.033-0.065-0.068-0.101-0.101c-0.036-0.037-0.073-0.075-0.11-0.112c-0.035-0.034-0.068-0.07-0.104-0.104    c-0.037-0.037-0.073-0.074-0.11-0.11c-0.033-0.033-0.065-0.068-0.102-0.101c-0.037-0.037-0.072-0.074-0.109-0.11    c-0.035-0.035-0.068-0.07-0.104-0.104c-0.037-0.036-0.072-0.073-0.109-0.109c-0.034-0.035-0.067-0.07-0.104-0.104    c-0.034-0.035-0.066-0.07-0.104-0.104c-0.037-0.038-0.074-0.076-0.111-0.113c-0.033-0.033-0.065-0.067-0.101-0.1    c-0.037-0.037-0.071-0.074-0.11-0.11c-0.035-0.035-0.068-0.071-0.104-0.105c-0.036-0.035-0.069-0.072-0.106-0.106    c-0.035-0.036-0.07-0.072-0.106-0.107c-0.035-0.034-0.067-0.069-0.103-0.103c-0.037-0.036-0.072-0.074-0.111-0.11    c-0.033-0.034-0.067-0.07-0.104-0.104c-0.037-0.037-0.072-0.074-0.109-0.11c-0.035-0.034-0.068-0.069-0.104-0.104    c-0.034-0.035-0.069-0.071-0.104-0.105c-0.037-0.036-0.07-0.072-0.107-0.107c-0.036-0.035-0.07-0.072-0.105-0.106    c-0.037-0.036-0.071-0.073-0.108-0.108c-0.034-0.034-0.067-0.068-0.103-0.102c-0.037-0.036-0.07-0.073-0.107-0.108    c-0.036-0.035-0.07-0.071-0.105-0.106c-0.037-0.036-0.07-0.072-0.107-0.107c-0.035-0.035-0.069-0.071-0.105-0.105    c-0.035-0.035-0.07-0.072-0.105-0.106c-0.035-0.035-0.069-0.071-0.105-0.105c-0.035-0.036-0.07-0.072-0.105-0.107    c-0.036-0.036-0.07-0.072-0.106-0.106c-0.036-0.035-0.069-0.072-0.106-0.106c-0.035-0.036-0.07-0.072-0.106-0.107    c-0.036-0.035-0.069-0.071-0.106-0.106c-0.035-0.035-0.067-0.071-0.104-0.104c-0.037-0.036-0.072-0.073-0.109-0.109    c-0.033-0.034-0.066-0.069-0.103-0.103c-0.037-0.037-0.072-0.074-0.11-0.11c-0.033-0.033-0.064-0.067-0.099-0.1    c-0.038-0.038-0.074-0.076-0.113-0.113c-0.036-0.036-0.069-0.072-0.106-0.107c-0.035-0.034-0.066-0.069-0.103-0.103    c-0.037-0.036-0.071-0.073-0.108-0.109c-0.037-0.035-0.069-0.071-0.105-0.105c-0.036-0.036-0.07-0.072-0.107-0.107    c-0.033-0.034-0.066-0.069-0.103-0.103c-0.036-0.037-0.071-0.074-0.108-0.109c-0.035-0.035-0.07-0.071-0.105-0.106    c-0.036-0.035-0.07-0.072-0.106-0.106c-0.036-0.036-0.071-0.073-0.108-0.108c-0.033-0.034-0.065-0.068-0.102-0.102    c-0.037-0.037-0.072-0.075-0.111-0.111c-0.035-0.035-0.068-0.07-0.104-0.105c-0.034-0.034-0.067-0.069-0.103-0.103    c-0.037-0.036-0.071-0.073-0.108-0.108c-0.036-0.035-0.07-0.072-0.106-0.106c-0.035-0.036-0.07-0.073-0.107-0.108    c-0.036-0.035-0.07-0.071-0.106-0.106c-0.032-0.033-0.065-0.067-0.1-0.1c-0.037-0.036-0.071-0.074-0.109-0.109    c-0.036-0.037-0.071-0.075-0.11-0.111c-0.034-0.035-0.067-0.07-0.104-0.104c-0.035-0.035-0.068-0.07-0.104-0.104    c-0.036-0.036-0.07-0.072-0.107-0.107c-0.035-0.035-0.068-0.07-0.104-0.104c-0.039-0.037-0.073-0.075-0.112-0.112    c-0.034-0.033-0.065-0.068-0.101-0.102c-0.037-0.035-0.07-0.072-0.107-0.106c-0.036-0.036-0.07-0.073-0.107-0.108    c-0.035-0.036-0.07-0.073-0.109-0.109c-0.034-0.035-0.068-0.07-0.104-0.105c-0.035-0.035-0.068-0.07-0.105-0.104    c-0.034-0.035-0.067-0.07-0.104-0.104c-0.035-0.036-0.07-0.072-0.107-0.107c-0.035-0.036-0.07-0.073-0.107-0.108    c-0.036-0.036-0.07-0.072-0.107-0.107c-0.035-0.035-0.067-0.07-0.104-0.104c-0.036-0.036-0.071-0.072-0.107-0.107    c-0.035-0.036-0.07-0.072-0.107-0.107c-0.034-0.034-0.067-0.07-0.104-0.104c-0.035-0.036-0.07-0.073-0.107-0.108    c-0.035-0.034-0.068-0.07-0.104-0.104c-0.036-0.036-0.071-0.073-0.108-0.109c-0.035-0.035-0.069-0.071-0.105-0.105    c-0.036-0.036-0.07-0.073-0.107-0.108C39.105,18.256,36.332,17,33,17c-8.187,0-13,6.105-13,11c0,2.266,1.168,4.568,2.165,5.529    c0.036,0.039,0.072,0.074,0.107,0.107c0.036,0.038,0.072,0.073,0.107,0.107c0.036,0.037,0.071,0.072,0.107,0.105    c0.035,0.037,0.07,0.072,0.105,0.105c0.036,0.038,0.072,0.072,0.107,0.107c0.035,0.035,0.069,0.069,0.103,0.103    c0.036,0.038,0.071,0.073,0.106,0.106c0.036,0.039,0.072,0.074,0.108,0.108c0.035,0.037,0.07,0.071,0.105,0.104    c0.036,0.037,0.072,0.072,0.107,0.107c0.037,0.037,0.072,0.073,0.108,0.107c0.035,0.037,0.07,0.07,0.105,0.105    c0.035,0.036,0.07,0.07,0.105,0.104c0.036,0.037,0.072,0.074,0.108,0.107c0.034,0.035,0.067,0.068,0.101,0.102    c0.038,0.041,0.076,0.078,0.114,0.113c0.034,0.037,0.068,0.069,0.102,0.103c0.034,0.036,0.067,0.069,0.101,0.103    c0.038,0.039,0.075,0.076,0.112,0.111c0.037,0.038,0.073,0.074,0.109,0.107c0.035,0.037,0.069,0.07,0.104,0.104    c0.036,0.038,0.071,0.072,0.106,0.106c0.037,0.037,0.072,0.072,0.108,0.107c0.034,0.035,0.067,0.068,0.101,0.102    c0.037,0.039,0.074,0.074,0.11,0.109c0.037,0.039,0.074,0.075,0.11,0.11c0.034,0.035,0.066,0.067,0.1,0.101    c0.037,0.037,0.072,0.072,0.108,0.107c0.036,0.037,0.071,0.072,0.106,0.105c0.036,0.039,0.071,0.072,0.106,0.106    c0.036,0.038,0.072,0.073,0.108,0.106c0.036,0.037,0.07,0.072,0.105,0.105c0.036,0.037,0.07,0.072,0.105,0.105    c0.035,0.035,0.069,0.07,0.104,0.104c0.036,0.038,0.072,0.074,0.108,0.109c0.037,0.037,0.072,0.072,0.108,0.107    c0.036,0.037,0.071,0.071,0.106,0.105c0.019,0.021,0.039,0.043,0.058,0.063c-0.346,1.248-0.632,2.303-0.735,2.735    c-0.617,2.614-1.385,6.256-0.649,6.692c0.032,0.043,0.066,0.082,0.107,0.105c0.032,0.043,0.065,0.082,0.106,0.106    c0.032,0.043,0.066,0.082,0.107,0.106c0.032,0.043,0.065,0.082,0.106,0.105c0.032,0.043,0.065,0.082,0.106,0.105    c0.032,0.043,0.065,0.082,0.106,0.105c0.032,0.043,0.065,0.082,0.106,0.105c0.032,0.043,0.065,0.082,0.106,0.106    c0.032,0.044,0.067,0.083,0.108,0.106c0.031,0.041,0.063,0.08,0.103,0.104c0.032,0.045,0.066,0.084,0.108,0.108    c0.032,0.043,0.066,0.082,0.107,0.105c0.032,0.043,0.065,0.082,0.105,0.105c0.032,0.043,0.065,0.082,0.106,0.105    c0.032,0.043,0.066,0.082,0.107,0.106c0.031,0.042,0.064,0.081,0.104,0.104c0.032,0.045,0.066,0.084,0.108,0.107    c0.032,0.043,0.066,0.083,0.108,0.105c0.031,0.043,0.064,0.082,0.104,0.105c0.033,0.044,0.067,0.083,0.109,0.107    c0.032,0.041,0.064,0.08,0.105,0.104c0.032,0.043,0.065,0.082,0.106,0.106c0.032,0.043,0.066,0.082,0.107,0.105    c0.031,0.042,0.064,0.081,0.104,0.105c0.032,0.044,0.066,0.082,0.108,0.106c0.032,0.044,0.066,0.083,0.108,0.106    c0.031,0.042,0.064,0.081,0.104,0.105c0.032,0.043,0.067,0.082,0.108,0.106c0.032,0.043,0.065,0.082,0.105,0.104    c0.032,0.043,0.065,0.082,0.106,0.106c0.032,0.043,0.065,0.082,0.105,0.106c0.032,0.043,0.067,0.082,0.108,0.105    c0.031,0.042,0.063,0.081,0.103,0.104c0.033,0.045,0.068,0.084,0.11,0.109c0.031,0.042,0.064,0.08,0.104,0.104    c0.032,0.043,0.065,0.082,0.106,0.106c0.032,0.043,0.065,0.082,0.106,0.106c0.032,0.043,0.066,0.082,0.107,0.105    c0.032,0.043,0.066,0.082,0.107,0.106c0.032,0.043,0.065,0.082,0.105,0.104c0.032,0.043,0.065,0.082,0.106,0.106    c0.031,0.043,0.064,0.082,0.104,0.104c0.033,0.045,0.068,0.084,0.109,0.108c0.032,0.042,0.064,0.081,0.104,0.104    c0.032,0.043,0.066,0.082,0.107,0.106c0.032,0.043,0.065,0.082,0.106,0.106c0.032,0.043,0.066,0.082,0.107,0.105    c0.032,0.043,0.065,0.081,0.105,0.105c0.032,0.043,0.066,0.082,0.107,0.105c0.032,0.043,0.065,0.082,0.106,0.106    c0.032,0.043,0.066,0.081,0.107,0.106c0.032,0.043,0.065,0.081,0.105,0.105c0.032,0.043,0.067,0.082,0.108,0.105    c0.032,0.043,0.064,0.082,0.104,0.105c0.032,0.044,0.067,0.083,0.108,0.107c0.032,0.043,0.065,0.082,0.105,0.104    c0.032,0.043,0.065,0.082,0.106,0.106c0.032,0.043,0.066,0.082,0.107,0.105c0.032,0.043,0.065,0.082,0.106,0.105    c0.032,0.043,0.065,0.082,0.105,0.106c0.032,0.043,0.066,0.082,0.107,0.106c0.032,0.043,0.065,0.082,0.106,0.105    c0.032,0.043,0.066,0.082,0.107,0.106c0.031,0.043,0.064,0.081,0.105,0.104c0.032,0.043,0.066,0.082,0.107,0.106    c0.032,0.043,0.065,0.082,0.106,0.106c0.032,0.043,0.066,0.082,0.107,0.105c0.032,0.043,0.065,0.082,0.106,0.105    c0.032,0.043,0.066,0.082,0.107,0.106c0.032,0.043,0.065,0.081,0.105,0.104c0.032,0.043,0.065,0.082,0.106,0.106    c0.032,0.043,0.065,0.082,0.106,0.106c0.032,0.043,0.065,0.082,0.106,0.105c0.031,0.043,0.065,0.082,0.106,0.105    c0.031,0.044,0.065,0.082,0.104,0.106c0.033,0.044,0.066,0.083,0.108,0.106c0.031,0.043,0.063,0.081,0.104,0.105    c0.031,0.043,0.064,0.082,0.105,0.105c0.032,0.043,0.065,0.082,0.106,0.105c0.032,0.043,0.065,0.082,0.104,0.106    c0.032,0.043,0.066,0.082,0.108,0.106c0.03,0.041,0.063,0.08,0.104,0.104c0.031,0.044,0.065,0.083,0.107,0.106    c0.031,0.043,0.064,0.082,0.105,0.106c0.031,0.043,0.065,0.082,0.105,0.106c0.032,0.043,0.066,0.082,0.107,0.104    c0.031,0.043,0.064,0.082,0.104,0.106c0.032,0.043,0.065,0.082,0.106,0.105c0.031,0.043,0.064,0.082,0.104,0.106    c0.032,0.043,0.066,0.083,0.108,0.106c0.031,0.041,0.063,0.08,0.104,0.104c0.032,0.044,0.067,0.083,0.109,0.106    c0.031,0.043,0.063,0.082,0.104,0.105c0.032,0.043,0.065,0.082,0.106,0.105c0.032,0.043,0.065,0.082,0.106,0.106    c0.031,0.043,0.065,0.082,0.105,0.106c0.032,0.043,0.066,0.082,0.107,0.105c0.031,0.042,0.063,0.081,0.104,0.105    c0.032,0.043,0.067,0.082,0.108,0.106c0.031,0.042,0.063,0.081,0.104,0.104c0.032,0.045,0.066,0.084,0.107,0.107    c0.032,0.043,0.065,0.082,0.106,0.105c0.031,0.043,0.064,0.082,0.105,0.105c0.031,0.043,0.064,0.082,0.105,0.106    c0.031,0.044,0.065,0.083,0.107,0.106c0.029,0.041,0.063,0.08,0.104,0.104c0.031,0.045,0.066,0.084,0.108,0.107    c0.031,0.043,0.065,0.082,0.106,0.106c0.031,0.043,0.063,0.081,0.104,0.104c0.032,0.043,0.066,0.082,0.105,0.106    c0.033,0.044,0.066,0.083,0.109,0.106c0.03,0.043,0.063,0.082,0.104,0.105c0.031,0.043,0.066,0.082,0.107,0.106    c0.031,0.043,0.064,0.082,0.104,0.104c0.032,0.043,0.063,0.082,0.104,0.105c0.032,0.045,0.067,0.085,0.109,0.109    c0.031,0.041,0.063,0.08,0.104,0.104c0.032,0.043,0.066,0.082,0.106,0.105c0.032,0.043,0.065,0.082,0.106,0.106    c0.031,0.043,0.065,0.083,0.107,0.106c0.031,0.043,0.064,0.08,0.104,0.104c0.033,0.043,0.065,0.082,0.106,0.106    c0.032,0.043,0.065,0.082,0.106,0.105c0.031,0.043,0.064,0.082,0.104,0.105c0.032,0.043,0.066,0.082,0.108,0.106    c0.031,0.042,0.063,0.081,0.104,0.105c0.032,0.044,0.066,0.083,0.108,0.106c0.03,0.043,0.065,0.082,0.104,0.106    c0.032,0.043,0.066,0.082,0.106,0.106c0.032,0.043,0.065,0.082,0.106,0.104c0.031,0.043,0.065,0.082,0.105,0.106    c0.032,0.043,0.064,0.082,0.105,0.105c0.031,0.043,0.064,0.082,0.105,0.105c0.032,0.043,0.066,0.084,0.108,0.106    c0.03,0.042,0.063,0.081,0.104,0.104c0.032,0.045,0.067,0.084,0.109,0.107c0.03,0.042,0.063,0.081,0.104,0.105    c0.031,0.043,0.064,0.082,0.105,0.105c0.031,0.043,0.066,0.082,0.107,0.106c0.03,0.043,0.064,0.082,0.104,0.106    c0.032,0.043,0.065,0.082,0.106,0.105c0.031,0.043,0.064,0.082,0.105,0.105c0.032,0.045,0.066,0.084,0.107,0.106    c0.031,0.042,0.063,0.081,0.104,0.104c0.032,0.045,0.066,0.084,0.106,0.107c0.033,0.043,0.066,0.082,0.107,0.105    c0.03,0.043,0.064,0.082,0.104,0.105c0.032,0.043,0.065,0.082,0.106,0.105c0.031,0.043,0.065,0.082,0.105,0.106    c0.031,0.043,0.066,0.083,0.107,0.106c0.031,0.042,0.063,0.08,0.104,0.104c0.032,0.044,0.065,0.083,0.106,0.107    c0.033,0.043,0.065,0.081,0.105,0.104c0.032,0.043,0.066,0.082,0.105,0.106c0.033,0.043,0.066,0.082,0.106,0.106    c0.032,0.043,0.065,0.082,0.106,0.105c0.031,0.043,0.066,0.083,0.107,0.105c0.031,0.043,0.064,0.082,0.104,0.105    c0.032,0.043,0.065,0.082,0.106,0.105c0.031,0.043,0.064,0.082,0.105,0.106c0.031,0.043,0.064,0.082,0.105,0.106    c0.031,0.043,0.065,0.082,0.105,0.105c0.031,0.043,0.066,0.082,0.105,0.106c0.032,0.043,0.065,0.082,0.106,0.106    c0.032,0.043,0.065,0.082,0.108,0.105c0.031,0.043,0.063,0.082,0.104,0.105c0.032,0.043,0.064,0.082,0.105,0.105    c0.033,0.043,0.065,0.082,0.105,0.105c0.032,0.043,0.066,0.082,0.105,0.106c0.033,0.043,0.066,0.082,0.106,0.106    c0.032,0.043,0.066,0.082,0.108,0.105c0.031,0.042,0.063,0.081,0.104,0.105c0.032,0.043,0.067,0.082,0.109,0.106    c0.031,0.042,0.063,0.081,0.104,0.105c0.032,0.044,0.066,0.083,0.107,0.106c0.032,0.043,0.064,0.081,0.105,0.105    c0.031,0.043,0.065,0.082,0.105,0.105c0.032,0.043,0.066,0.084,0.107,0.106c0.031,0.042,0.063,0.081,0.104,0.104    c0.032,0.045,0.066,0.084,0.108,0.107c0.031,0.043,0.064,0.082,0.105,0.105c0.031,0.043,0.064,0.082,0.104,0.105    c0.032,0.043,0.065,0.082,0.106,0.105c0.031,0.043,0.065,0.082,0.105,0.106c0.031,0.043,0.066,0.082,0.105,0.106    c0.032,0.043,0.066,0.082,0.106,0.105c0.032,0.043,0.065,0.082,0.104,0.106c0.032,0.044,0.067,0.083,0.109,0.106    c0.031,0.043,0.063,0.08,0.104,0.104c0.033,0.043,0.066,0.082,0.107,0.106c0.031,0.043,0.064,0.082,0.105,0.105    c0.031,0.043,0.066,0.082,0.105,0.105c0.032,0.043,0.066,0.082,0.106,0.106c0.032,0.043,0.065,0.082,0.106,0.106    c0.031,0.041,0.063,0.08,0.104,0.104c0.032,0.044,0.065,0.083,0.108,0.106c0.03,0.044,0.063,0.082,0.104,0.105    c0.031,0.043,0.066,0.082,0.105,0.106c0.032,0.043,0.066,0.082,0.106,0.106c0.032,0.043,0.065,0.082,0.106,0.105    c0.031,0.043,0.065,0.083,0.107,0.105c0.031,0.043,0.063,0.082,0.104,0.105c0.033,0.043,0.066,0.082,0.106,0.105    c0.032,0.043,0.066,0.082,0.106,0.106c0.031,0.043,0.066,0.082,0.105,0.106c0.032,0.043,0.066,0.082,0.106,0.105    c0.032,0.043,0.065,0.082,0.106,0.105c0.031,0.043,0.065,0.082,0.105,0.106c0.031,0.043,0.064,0.082,0.105,0.106    c0.032,0.043,0.066,0.082,0.107,0.105c0.032,0.043,0.064,0.082,0.105,0.105c0.031,0.043,0.064,0.082,0.104,0.105    c0.032,0.043,0.065,0.082,0.106,0.106c0.031,0.043,0.065,0.082,0.105,0.106c0.032,0.043,0.066,0.082,0.107,0.105    c0.031,0.042,0.063,0.081,0.104,0.105c0.032,0.043,0.066,0.082,0.108,0.106c0.031,0.043,0.064,0.081,0.105,0.104    c0.03,0.045,0.064,0.084,0.105,0.107c0.031,0.043,0.064,0.081,0.105,0.105c0.031,0.043,0.065,0.082,0.105,0.105    c0.031,0.043,0.066,0.082,0.105,0.106c0.032,0.044,0.067,0.083,0.108,0.106c0.031,0.041,0.063,0.08,0.104,0.104    c0.031,0.043,0.065,0.082,0.106,0.106c0.032,0.043,0.065,0.082,0.104,0.105c0.033,0.043,0.066,0.082,0.106,0.105    c0.032,0.043,0.066,0.082,0.106,0.106c0.031,0.043,0.066,0.082,0.105,0.106c0.032,0.043,0.066,0.082,0.106,0.105    c0.032,0.043,0.065,0.082,0.104,0.106c0.033,0.044,0.067,0.083,0.109,0.106c0.031,0.041,0.063,0.08,0.104,0.104    c0.032,0.043,0.066,0.082,0.106,0.106c0.032,0.043,0.065,0.082,0.106,0.105c0.031,0.043,0.065,0.083,0.107,0.105    c0.031,0.043,0.063,0.082,0.104,0.105c0.033,0.044,0.066,0.083,0.108,0.107c0.031,0.041,0.063,0.08,0.104,0.104    c0.031,0.044,0.066,0.083,0.109,0.106c0.03,0.043,0.063,0.082,0.104,0.105c0.031,0.043,0.066,0.082,0.105,0.105    c0.032,0.044,0.066,0.082,0.106,0.106c0.032,0.044,0.065,0.082,0.106,0.106c0.031,0.043,0.064,0.082,0.105,0.105    c0.032,0.043,0.066,0.082,0.107,0.106c0.031,0.043,0.063,0.081,0.104,0.104c0.032,0.043,0.066,0.082,0.105,0.106    c0.033,0.043,0.066,0.082,0.106,0.106c0.032,0.043,0.066,0.082,0.106,0.105c0.031,0.043,0.066,0.082,0.105,0.105    c0.032,0.043,0.066,0.082,0.106,0.106c0.032,0.043,0.065,0.082,0.106,0.106c0.031,0.044,0.065,0.082,0.107,0.106    c0.031,0.041,0.063,0.08,0.104,0.104c0.032,0.043,0.065,0.082,0.106,0.105c0.032,0.043,0.065,0.082,0.106,0.106    c0.031,0.043,0.065,0.082,0.105,0.106c0.032,0.043,0.066,0.082,0.107,0.105c0.031,0.042,0.063,0.081,0.104,0.104    c0.032,0.045,0.065,0.084,0.108,0.108c0.031,0.043,0.064,0.081,0.104,0.104c0.032,0.043,0.066,0.082,0.106,0.106    c0.032,0.043,0.065,0.082,0.106,0.106c0.031,0.043,0.065,0.082,0.105,0.105c0.031,0.043,0.066,0.082,0.105,0.106    c0.032,0.044,0.067,0.083,0.108,0.106c0.031,0.041,0.063,0.08,0.104,0.104c0.031,0.043,0.065,0.082,0.107,0.106    c0.031,0.043,0.064,0.082,0.104,0.105c0.033,0.043,0.066,0.082,0.106,0.105c0.032,0.043,0.065,0.082,0.106,0.106    c0.031,0.043,0.066,0.082,0.105,0.106c0.032,0.043,0.066,0.082,0.106,0.105c0.032,0.043,0.065,0.082,0.106,0.105    c0.031,0.043,0.064,0.082,0.105,0.105c0.031,0.043,0.064,0.082,0.105,0.105c0.031,0.044,0.065,0.082,0.105,0.106    c0.031,0.044,0.066,0.082,0.105,0.106c0.032,0.043,0.066,0.082,0.106,0.105c0.032,0.043,0.065,0.082,0.106,0.106    c0.031,0.043,0.065,0.082,0.106,0.106c0.031,0.041,0.063,0.08,0.104,0.104c0.031,0.043,0.065,0.082,0.105,0.106    c0.032,0.043,0.066,0.082,0.105,0.105c0.033,0.043,0.066,0.082,0.106,0.105c0.032,0.043,0.066,0.082,0.106,0.106    c0.031,0.043,0.066,0.082,0.107,0.106c0.031,0.041,0.063,0.08,0.104,0.104c0.031,0.044,0.066,0.083,0.107,0.107    c0.031,0.043,0.064,0.081,0.104,0.104c0.032,0.043,0.065,0.082,0.106,0.106c0.031,0.043,0.065,0.082,0.105,0.106    c0.032,0.043,0.066,0.082,0.105,0.105c0.033,0.043,0.066,0.082,0.106,0.105c0.032,0.043,0.065,0.082,0.106,0.106    c0.033,0.042,0.064,0.081,0.105,0.104c0.031,0.043,0.064,0.082,0.105,0.106c0.031,0.043,0.066,0.082,0.105,0.106    c0.032,0.043,0.066,0.082,0.106,0.105c0.069,0.094,0.155,0.15,0.271,0.15c1,0,2.063-2,4.063-7    c0.267-0.668,0.863-2.568,0.977-2.926c0.025,0.026,0.057,0.052,0.084,0.078c0.034,0.035,0.07,0.07,0.107,0.105    c0.033,0.036,0.068,0.07,0.105,0.105C63.159,70.318,65.346,71,67,71c5.539,0,9-5.24,9-12C76,56.43,74.88,53.916,72.932,52.052z" enable-background="new    " fill="url(#SVGID_3_)" opacity="0.4"/></g></g><path d="M33,17c-8.188,0-13,6.105-13,11c0,2.964,2,6,3,6s2,0,2-1s-2-2-2-5c0-4.354,4.773-8,10-8  c4.627,0,7,3.224,7,7c0,4.968-2.734,9-6,9c-1.803,0-3.434-1.172-3-3c0.52-2.184,1-2,2-6c0.342-1.368-0.434-3-2-3  c-1.843,0-4,1.446-4,4c0,1.627,1,3,1,3s-2.245,7.863-2.576,9.264C24.766,43.049,23.938,47,24.938,47S27,45,29,40  c0.295-0.738,1-3,1-3c0.6,1.143,3.141,2,5,2c5.539,0,9-5.24,9-12C44,21.888,39.58,17,33,17z" fill="#FFFFFF" id="P_2_"/></svg>