<?xml version="1.0" ?><!DOCTYPE svg  PUBLIC '-//W3C//DTD SVG 1.1//EN'  'http://www.w3.org/Graphics/SVG/1.1/DTD/svg11.dtd'><svg enable-background="new 0 0 64 64" height="64px" id="Github" version="1.1" viewBox="0 0 64 64" width="64px" xml:space="preserve" xmlns="http://www.w3.org/2000/svg" xmlns:xlink="http://www.w3.org/1999/xlink"><linearGradient gradientTransform="matrix(1 0 0 -1 -822 -1026)" gradientUnits="userSpaceOnUse" id="Circle_Shadow_1_" x1="886.0303" x2="854.0302" y1="-1089.9985" y2="-1057.9985"><stop offset="0.3163" style="stop-color:#FFFFFF;stop-opacity:0"/><stop offset="0.3508" style="stop-color:#E9E9E9;stop-opacity:0.0504"/><stop offset="0.4543" style="stop-color:#ACACAC;stop-opacity:0.2018"/><stop offset="0.5572" style="stop-color:#787878;stop-opacity:0.3523"/><stop offset="0.6569" style="stop-color:#4D4D4D;stop-opacity:0.4981"/><stop offset="0.7528" style="stop-color:#2B2B2B;stop-opacity:0.6385"/><stop offset="0.8441" style="stop-color:#131313;stop-opacity:0.7719"/><stop offset="0.9286" style="stop-color:#050505;stop-opacity:0.8956"/><stop offset="1" style="stop-color:#000000"/></linearGradient><polygon enable-background="new    " fill="url(#Circle_Shadow_1_)" id="Circle_Shadow" opacity="0.2" points="64.029,64   64.029,30.059 49,15.029 15.059,48.971 30.088,64 "/><circle cx="32" cy="32" fill="#282828" id="Circle" r="24"/><g id="Cat_Shadow"><g><defs><circle cx="32.029" cy="32" id="SVGID_1_" r="24"/></defs><clipPath id="SVGID_2_"><use overflow="visible" xlink:href="#SVGID_1_"/></clipPath><linearGradient gradientTransform="matrix(1 0 0 -1 -274 -299)" gradientUnits="userSpaceOnUse" id="SVGID_3_" x1="348.5469" x2="296.0939" y1="-370.8364" y2="-318.3835"><stop offset="0.5255" style="stop-color:#000000;stop-opacity:0"/><stop offset="1" style="stop-color:#000000"/></linearGradient><path clip-path="url(#SVGID_2_)" d="M74.375,61c0-4.494-0.809-5.756-1.698-6.691    c-0.032-0.035-0.065-0.072-0.101-0.106c-0.032-0.036-0.064-0.071-0.1-0.104c-0.031-0.037-0.064-0.07-0.098-0.105h-0.001    c0.208-0.504,1.029-2.319-0.035-4.99c0,0-0.024,0.001-0.063,0.004c-0.014-0.038-0.021-0.072-0.035-0.109c0,0-0.025,0-0.063,0.004    c-0.016-0.039-0.021-0.072-0.037-0.11c0,0-0.023,0.001-0.063,0.004c-0.016-0.038-0.021-0.071-0.036-0.11    c0,0-0.024,0.002-0.063,0.004c-0.015-0.037-0.021-0.07-0.035-0.108c0,0-0.025,0.001-0.063,0.004    c-0.015-0.038-0.021-0.071-0.036-0.11c0,0-0.025,0.002-0.063,0.004c-0.016-0.037-0.021-0.072-0.036-0.109    c0,0-0.024,0.001-0.063,0.004c-0.015-0.038-0.021-0.072-0.035-0.109c0,0-0.025,0-0.063,0.004    c-0.015-0.039-0.021-0.072-0.036-0.111c0,0-0.025,0.002-0.063,0.005c-0.016-0.038-0.021-0.072-0.036-0.11    c0,0-0.024,0.001-0.063,0.004c-0.015-0.037-0.021-0.072-0.035-0.109c0,0-0.025,0-0.063,0.004c-0.015-0.038-0.021-0.072-0.036-0.11    c0,0-0.025,0.001-0.063,0.004c-0.016-0.038-0.021-0.071-0.037-0.108c0,0-0.024,0-0.063,0.004c-0.015-0.038-0.021-0.072-0.036-0.11    c0,0-0.024,0.001-0.063,0.004c-0.015-0.038-0.021-0.071-0.036-0.11c0,0-0.025,0.002-0.063,0.004    c-0.016-0.037-0.021-0.071-0.037-0.109c0,0-0.024,0.001-0.063,0.004c-0.015-0.038-0.021-0.072-0.036-0.109    c0,0-0.023,0-0.063,0.004c-0.016-0.039-0.021-0.072-0.037-0.11c0,0-0.024,0.001-0.063,0.004c-0.015-0.038-0.021-0.072-0.035-0.11    c0,0-0.025,0.002-0.063,0.004c-0.015-0.037-0.021-0.07-0.036-0.108c0,0-0.025,0.001-0.063,0.004    c-0.016-0.038-0.021-0.072-0.037-0.11c0,0-0.023,0.002-0.063,0.004c-0.016-0.037-0.021-0.072-0.036-0.109    c0,0-0.024,0.001-0.063,0.004c-0.014-0.038-0.021-0.072-0.035-0.11c0,0-0.025,0.001-0.063,0.005    c-0.016-0.039-0.021-0.072-0.037-0.111c0,0-0.024,0.002-0.063,0.004c-0.016-0.037-0.021-0.071-0.036-0.109    c0,0-0.024,0.001-0.063,0.004c-0.015-0.037-0.021-0.072-0.035-0.109c0,0-0.024,0-0.063,0.004    c-0.015-0.039-0.021-0.071-0.036-0.109c0,0-0.025,0.001-0.064,0.004c-0.014-0.038-0.021-0.072-0.035-0.109    c0,0-0.023,0-0.063,0.004c-0.016-0.039-0.021-0.072-0.037-0.11c0,0-0.024,0.001-0.063,0.004c-0.016-0.038-0.021-0.071-0.036-0.11    c0,0-0.024,0.002-0.063,0.004c-0.015-0.037-0.021-0.071-0.035-0.109c0,0-0.025,0.001-0.063,0.004    c-0.015-0.038-0.021-0.072-0.036-0.109c0,0-0.025,0-0.063,0.004c-0.016-0.039-0.021-0.072-0.036-0.109    c0,0-0.024,0.001-0.063,0.004c-0.015-0.038-0.021-0.072-0.035-0.111c0,0-0.025,0.001-0.063,0.004    c-0.015-0.037-0.021-0.07-0.036-0.109c0,0-0.025,0.002-0.063,0.005c-0.016-0.038-0.021-0.072-0.036-0.11    c0,0-0.025,0.001-0.063,0.004c-0.015-0.037-0.021-0.072-0.035-0.109c0,0-0.025,0-0.063,0.004c-0.015-0.038-0.021-0.072-0.036-0.11    c0,0-0.025,0.001-0.063,0.004c-0.016-0.038-0.021-0.071-0.037-0.11c0,0-0.024,0.002-0.063,0.004    c-0.015-0.037-0.021-0.071-0.036-0.109c0,0-0.024,0.001-0.063,0.004c-0.015-0.038-0.021-0.072-0.036-0.109    c0,0-0.025,0-0.063,0.004c-0.016-0.039-0.021-0.072-0.037-0.11c0,0-0.024,0.001-0.063,0.004c-0.016-0.038-0.021-0.071-0.036-0.108    c0,0-0.024,0-0.063,0.004c-0.015-0.039-0.021-0.072-0.035-0.11c0,0-0.024,0.001-0.063,0.004c-0.015-0.038-0.021-0.072-0.036-0.11    c0,0-0.024,0.002-0.063,0.004c-0.016-0.037-0.021-0.072-0.036-0.109c0,0-0.024,0.001-0.063,0.004    c-0.015-0.038-0.021-0.072-0.035-0.11c0,0-0.025,0.001-0.063,0.005c-0.015-0.039-0.021-0.072-0.036-0.109c0,0-0.025,0-0.063,0.004    c-0.016-0.038-0.021-0.072-0.036-0.111c0,0-0.025,0.001-0.063,0.004c-0.015-0.037-0.021-0.07-0.035-0.109    c0,0-0.025,0.002-0.063,0.004c-0.015-0.037-0.021-0.071-0.036-0.109c0,0-0.023,0.001-0.063,0.004    c-0.016-0.038-0.021-0.072-0.037-0.109c0,0-0.024,0-0.063,0.004c-0.015-0.039-0.021-0.072-0.035-0.11c0,0-0.025,0.001-0.063,0.004    c-0.015-0.038-0.021-0.071-0.036-0.11c0,0-0.025,0.002-0.063,0.004c-0.016-0.037-0.021-0.07-0.037-0.108    c0,0-0.023,0.001-0.063,0.004c-0.016-0.038-0.021-0.071-0.036-0.11c0,0-0.024,0-0.063,0.004c-0.015-0.039-0.021-0.071-0.035-0.109    c0,0-0.025,0.001-0.063,0.004c-0.015-0.038-0.021-0.072-0.036-0.109c0,0-0.024,0-0.063,0.004c-0.016-0.039-0.021-0.072-0.036-0.11    c0,0-0.024,0.001-0.063,0.004c-0.015-0.038-0.021-0.072-0.035-0.11c0,0-0.025,0.001-0.063,0.004    c-0.015-0.037-0.021-0.072-0.036-0.109c0,0-0.025,0-0.063,0.004c-0.016-0.038-0.021-0.072-0.036-0.11c0,0-0.025,0.001-0.063,0.004    c-0.015-0.038-0.021-0.071-0.035-0.108c0,0-0.024,0-0.063,0.004c-0.015-0.038-0.021-0.072-0.036-0.11c0,0-0.025,0.001-0.063,0.004    c-0.016-0.038-0.021-0.071-0.037-0.11c0,0-0.024,0.002-0.063,0.004c-0.015-0.037-0.021-0.071-0.035-0.109    c0,0-0.025,0.001-0.063,0.004c-0.015-0.038-0.021-0.072-0.036-0.109c0,0-0.023,0-0.063,0.004c-0.016-0.039-0.021-0.072-0.037-0.11    c0,0-0.024,0.001-0.063,0.004c-0.016-0.038-0.021-0.072-0.036-0.11c0,0-0.024,0.002-0.063,0.004    c-0.014-0.037-0.021-0.07-0.035-0.108c0,0-0.025,0.001-0.063,0.004c-0.015-0.038-0.021-0.072-0.036-0.111    c0,0-0.024,0.001-0.063,0.005c-0.016-0.039-0.021-0.072-0.036-0.109c0,0-0.024,0.001-0.063,0.004    c-0.015-0.038-0.021-0.072-0.035-0.11c0,0-0.025,0.001-0.063,0.005c-0.015-0.039-0.021-0.072-0.036-0.111    c0,0-0.023,0.002-0.063,0.005c-0.016-0.038-0.021-0.072-0.036-0.11c0,0-0.025,0.001-0.063,0.004    c-0.015-0.037-0.021-0.072-0.035-0.109c0,0-0.025,0-0.063,0.004c-0.015-0.038-0.021-0.072-0.036-0.11c0,0-0.025,0.001-0.063,0.004    c-0.016-0.038-0.021-0.071-0.037-0.108c0,0-0.023,0-0.063,0.004c-0.015-0.039-0.021-0.072-0.035-0.111    c0,0-0.025,0.001-0.064,0.004c-0.016-0.037-0.021-0.07-0.036-0.109c0,0-0.024,0.002-0.063,0.004    c-0.015-0.037-0.021-0.071-0.035-0.109c0,0-0.025,0.001-0.063,0.004c-0.015-0.038-0.021-0.072-0.036-0.109    c0,0-0.025,0-0.063,0.004c-0.016-0.039-0.021-0.072-0.036-0.11c0,0-0.025,0.001-0.063,0.004c-0.015-0.038-0.021-0.072-0.035-0.11    c0,0-0.025,0.001-0.063,0.004c-0.015-0.037-0.021-0.07-0.036-0.109c0,0-0.025,0.002-0.063,0.005    c-0.016-0.038-0.021-0.072-0.037-0.111c0,0-0.024,0.001-0.063,0.004c-0.015-0.038-0.021-0.071-0.036-0.108    c0,0-0.024,0-0.063,0.004c-0.015-0.038-0.021-0.072-0.036-0.11c0,0-0.025,0.001-0.063,0.004c-0.016-0.038-0.021-0.071-0.037-0.11    c0,0-0.024,0.002-0.063,0.004c-0.016-0.037-0.021-0.071-0.036-0.109c0,0-0.024,0.001-0.063,0.004    c-0.014-0.038-0.021-0.072-0.035-0.109c0,0-0.025,0-0.063,0.004c-0.015-0.039-0.021-0.071-0.036-0.109    c0,0-0.023,0.001-0.063,0.004c-0.016-0.038-0.021-0.072-0.036-0.109c0,0-0.024,0-0.063,0.004c-0.015-0.039-0.021-0.072-0.035-0.11    c0,0-0.025,0.001-0.063,0.004c-0.015-0.038-0.021-0.072-0.036-0.11c0,0-0.025,0.002-0.063,0.004    c-0.016-0.037-0.021-0.072-0.036-0.109c0,0-0.024,0.001-0.063,0.004c-0.015-0.038-0.021-0.072-0.035-0.11    c0,0-0.025,0.001-0.063,0.005c-0.015-0.039-0.021-0.072-0.036-0.111c0,0-0.025,0.002-0.063,0.005    c-0.016-0.038-0.021-0.071-0.036-0.109c0,0-0.025,0.001-0.063,0.004c-0.015-0.038-0.021-0.071-0.035-0.11    c0,0-0.025,0.002-0.063,0.004c-0.015-0.037-0.021-0.071-0.036-0.109c0,0-0.025,0.001-0.063,0.004    c-0.016-0.038-0.021-0.072-0.037-0.109c0,0-0.024,0-0.063,0.004c-0.015-0.039-0.021-0.072-0.036-0.11c0,0-0.024,0.001-0.063,0.004    c-0.015-0.038-0.021-0.071-0.036-0.11c0,0-0.025,0.002-0.063,0.004c-0.016-0.037-0.021-0.071-0.037-0.109    c0,0-0.024,0.001-0.063,0.004c-0.016-0.038-0.021-0.072-0.036-0.109c0,0-0.024,0-0.063,0.004c-0.014-0.039-0.021-0.072-0.035-0.11    c0,0-0.025,0.001-0.063,0.004c-0.015-0.038-0.021-0.071-0.036-0.108c0,0-0.024,0-0.063,0.004    c-0.016-0.039-0.021-0.072-0.036-0.111c0,0-0.024,0.001-0.063,0.004c-0.015-0.038-0.021-0.071-0.035-0.109    c0,0-0.025,0.001-0.063,0.004c-0.015-0.037-0.021-0.072-0.036-0.109c0,0-0.025,0-0.063,0.004c-0.016-0.038-0.021-0.072-0.036-0.11    c0,0-0.024,0.001-0.063,0.004c-0.015-0.038-0.021-0.071-0.035-0.11c0,0-0.025,0.002-0.063,0.004    c-0.015-0.037-0.021-0.071-0.036-0.109c0,0-0.025,0.001-0.063,0.004c-0.016-0.038-0.021-0.07-0.036-0.109    c0,0-0.024,0.002-0.063,0.004c-0.015-0.037-0.021-0.071-0.035-0.11c0,0-0.025,0.001-0.063,0.004    c-0.015-0.038-0.021-0.071-0.036-0.108c0,0-0.025,0-0.063,0.004c-0.016-0.039-0.021-0.072-0.037-0.11c0,0-0.024,0.001-0.063,0.004    c-0.015-0.038-0.021-0.072-0.036-0.11c0,0-0.024,0.002-0.063,0.004c-0.015-0.037-0.021-0.072-0.036-0.109    c0,0-0.025,0.001-0.063,0.004c-0.016-0.038-0.021-0.072-0.037-0.11c0,0-0.024,0.001-0.063,0.005    c-0.016-0.039-0.021-0.072-0.036-0.109c0,0-0.024,0.001-0.063,0.004c-0.014-0.038-0.021-0.072-0.035-0.11    c0,0-0.024,0.001-0.063,0.005c-0.015-0.039-0.021-0.072-0.036-0.111c0,0-0.024,0.002-0.063,0.005    c-0.016-0.038-0.021-0.072-0.036-0.11c0,0-0.024,0.001-0.063,0.004c-0.015-0.037-0.021-0.072-0.035-0.109c0,0-0.024,0-0.063,0.004    c-0.015-0.038-0.021-0.071-0.036-0.109c0,0-0.025,0.001-0.063,0.004c-0.016-0.038-0.021-0.072-0.036-0.111    c0,0-0.024,0.002-0.063,0.004c-0.015-0.037-0.021-0.07-0.035-0.108c0,0-0.025,0.001-0.063,0.004    c-0.015-0.038-0.021-0.071-0.036-0.11c0,0-0.025,0.002-0.063,0.004c-0.016-0.037-0.021-0.071-0.036-0.109    c0,0-0.025,0.001-0.063,0.004c-0.015-0.038-0.021-0.072-0.035-0.109c0,0-0.025,0-0.063,0.004c-0.015-0.039-0.021-0.072-0.036-0.11    c0,0-0.025,0.001-0.063,0.004c-0.016-0.038-0.021-0.072-0.037-0.11c0,0-0.023,0.002-0.063,0.004    c-0.015-0.037-0.021-0.072-0.036-0.109c0,0-0.024,0.001-0.063,0.004c-0.015-0.038-0.021-0.072-0.036-0.11    c0,0-0.025,0.001-0.063,0.004c-0.016-0.038-0.021-0.071-0.037-0.108c0,0-0.024,0-0.063,0.004c-0.016-0.038-0.021-0.072-0.036-0.11    c0,0-0.024,0.001-0.063,0.004c-0.014-0.038-0.021-0.071-0.035-0.11c0,0-0.025,0.002-0.063,0.004    c-0.015-0.037-0.021-0.071-0.036-0.109c0,0-0.024,0.001-0.063,0.004c-0.016-0.038-0.021-0.072-0.036-0.109    c0,0-0.024,0-0.063,0.004c-0.015-0.039-0.021-0.072-0.035-0.11c0,0-0.025,0.001-0.063,0.004c-0.015-0.038-0.021-0.071-0.036-0.11    c0,0-0.025,0.002-0.063,0.004c-0.016-0.037-0.021-0.071-0.036-0.109c0,0-0.024,0.001-0.063,0.004    c-0.015-0.038-0.021-0.071-0.035-0.109c0,0-0.025,0.002-0.063,0.004c-0.015-0.037-0.021-0.072-0.036-0.109    c0,0-0.023,0.001-0.063,0.004c-0.016-0.038-0.021-0.072-0.036-0.11c0,0-0.025,0.001-0.063,0.005    c-0.015-0.039-0.021-0.072-0.035-0.111c0,0-0.025,0.002-0.063,0.005c-0.015-0.038-0.021-0.072-0.036-0.11    c0,0-0.023,0.001-0.063,0.004c-0.016-0.037-0.021-0.072-0.037-0.109c0,0-0.024,0-0.063,0.004c-0.015-0.038-0.021-0.072-0.036-0.11    c0,0-0.024,0.001-0.063,0.004c-0.015-0.038-0.021-0.071-0.036-0.11c0,0-0.025,0.002-0.063,0.004    c-0.016-0.037-0.021-0.07-0.037-0.108c0,0-0.024,0.001-0.063,0.004c-0.016-0.038-0.021-0.071-0.036-0.11    c0,0-0.024,0.002-0.063,0.004c-0.014-0.037-0.021-0.071-0.035-0.109c0,0-0.025,0.001-0.063,0.004    c-0.015-0.038-0.021-0.072-0.036-0.109c0,0-0.024,0-0.063,0.004c-0.016-0.039-0.021-0.072-0.036-0.11c0,0-0.024,0.001-0.063,0.004    c-0.015-0.038-0.021-0.071-0.035-0.109c0,0-0.025,0.001-0.063,0.004c-0.015-0.038-0.021-0.072-0.036-0.111    c0,0-0.025,0.001-0.063,0.004c-0.016-0.038-0.021-0.072-0.036-0.11c0,0-0.024,0.001-0.063,0.004    c-0.015-0.038-0.021-0.072-0.035-0.11c0,0-0.025,0.001-0.063,0.004c-0.015-0.038-0.021-0.072-0.036-0.11    c0,0-0.025,0.001-0.064,0.004c-0.015-0.038-0.021-0.072-0.035-0.111c0,0-0.024,0.001-0.063,0.004    c-0.015-0.038-0.021-0.072-0.036-0.11c0,0-0.024,0.001-0.063,0.004c-0.016-0.038-0.021-0.072-0.036-0.11    c0,0-0.024,0.001-0.063,0.004c-0.015-0.038-0.021-0.071-0.035-0.109c0,0-0.025,0.001-0.063,0.004    c-0.015-0.038-0.021-0.072-0.036-0.111c0,0-0.025,0.001-0.063,0.004c-0.016-0.038-0.021-0.072-0.036-0.11    c0,0-0.025,0.001-0.063,0.004c-0.015-0.038-0.021-0.072-0.035-0.11c0,0-0.024,0.001-0.063,0.004    c-0.015-0.038-0.021-0.072-0.036-0.11c0,0-0.025,0.001-0.063,0.004c-0.016-0.038-0.021-0.072-0.037-0.11    c0,0-0.024,0.001-0.063,0.004c-0.015-0.038-0.021-0.072-0.036-0.111c0,0-0.025,0.001-0.063,0.004    c-0.016-0.038-0.021-0.071-0.036-0.109c0,0-0.024,0.001-0.063,0.004c-0.015-0.038-0.021-0.072-0.035-0.11    c0,0-0.025,0.001-0.063,0.004c-0.015-0.038-0.021-0.072-0.036-0.11c0,0-0.025,0.001-0.063,0.004    c-0.016-0.038-0.021-0.072-0.036-0.111c0,0-0.025,0.001-0.063,0.004c-0.015-0.038-0.021-0.072-0.035-0.11    c0,0-0.025,0.001-0.063,0.004c-0.015-0.038-0.021-0.072-0.036-0.11c0,0-0.025,0.001-0.063,0.004    c-0.016-0.038-0.021-0.072-0.037-0.11c0,0-0.024,0.001-0.063,0.004c-0.015-0.038-0.021-0.072-0.035-0.111    c0,0-0.025,0.001-0.063,0.004c-0.015-0.038-0.021-0.072-0.036-0.11c0,0-0.023,0.001-0.063,0.004    c-0.016-0.038-0.021-0.072-0.037-0.11c0,0-0.024,0.001-0.063,0.004c-0.016-0.038-0.021-0.072-0.036-0.11    c0,0-0.024,0.001-0.063,0.004c-0.014-0.038-0.021-0.072-0.035-0.11c0,0-0.025,0.001-0.063,0.004    c-0.016-0.038-0.021-0.072-0.037-0.11c0,0-0.023,0.001-0.063,0.004c-0.016-0.038-0.021-0.071-0.036-0.109    c0,0-0.024,0.001-0.063,0.004c-0.015-0.038-0.021-0.073-0.035-0.111c0,0-0.025,0.001-0.064,0.004    c-0.015-0.038-0.021-0.072-0.035-0.11c0,0-0.025,0.001-0.063,0.004c-0.015-0.038-0.021-0.072-0.036-0.11    c0,0-0.025,0.001-0.063,0.004c-0.016-0.038-0.021-0.072-0.037-0.11c0,0-0.024,0.001-0.063,0.004    c-0.016-0.038-0.021-0.072-0.036-0.11c0,0-0.024,0.001-0.063,0.004c-0.014-0.038-0.021-0.072-0.035-0.11    c0,0-0.024,0.001-0.063,0.004c-0.016-0.038-0.021-0.072-0.037-0.11c0,0-0.024,0.001-0.063,0.004    c-0.016-0.038-0.021-0.071-0.036-0.109c0,0-0.024,0.001-0.063,0.004c-0.015-0.038-0.021-0.073-0.035-0.111    c0,0-0.025,0.001-0.063,0.004c-0.015-0.038-0.021-0.072-0.036-0.11c0,0-0.025,0.001-0.063,0.004    c-0.016-0.038-0.021-0.071-0.036-0.109c0,0-0.024,0.001-0.063,0.004c-0.015-0.038-0.021-0.072-0.035-0.11    c0,0-0.025,0.001-0.063,0.004c-0.015-0.038-0.021-0.072-0.036-0.11c0,0-0.025,0.001-0.063,0.004    c-0.016-0.038-0.021-0.072-0.036-0.11c0,0-0.025,0.001-0.063,0.004c-0.015-0.038-0.021-0.072-0.035-0.11    c0,0-0.025,0.001-0.063,0.004c-0.015-0.038-0.021-0.072-0.036-0.11c0,0-0.025,0.001-0.063,0.004    c-0.016-0.038-0.021-0.072-0.037-0.11c0,0-0.024,0.001-0.063,0.004c-0.015-0.038-0.021-0.073-0.035-0.111    c0,0-0.025,0.001-0.063,0.004c-0.015-0.038-0.021-0.071-0.036-0.109c0,0-0.025,0.001-0.063,0.004    c-0.016-0.038-0.021-0.072-0.037-0.11c0,0-0.024,0.001-0.063,0.004c-0.016-0.038-0.021-0.072-0.036-0.11    c0,0-0.024,0.001-0.063,0.004c-0.014-0.038-0.021-0.072-0.035-0.11c0,0-0.025,0.001-0.063,0.004    c-0.016-0.038-0.021-0.072-0.037-0.11c0,0-0.023,0.001-0.063,0.004c-0.016-0.038-0.021-0.072-0.036-0.11    c0,0-0.024,0.001-0.063,0.004c-0.015-0.038-0.021-0.072-0.035-0.111c0,0-0.025,0.001-0.063,0.004    c-0.015-0.038-0.021-0.072-0.036-0.11c0,0-0.025,0.001-0.063,0.004c-0.016-0.038-0.021-0.072-0.036-0.11    c0,0-0.024,0.001-0.063,0.004c-0.015-0.038-0.021-0.072-0.035-0.11c0,0-0.025,0.001-0.063,0.004    c-0.015-0.038-0.021-0.072-0.036-0.111c0,0-0.025,0.001-0.063,0.004c-0.016-0.038-0.021-0.072-0.036-0.11    c0,0-0.024,0.001-0.063,0.004c-0.015-0.038-0.021-0.072-0.035-0.11c0,0-0.025,0.001-0.063,0.004    c-0.015-0.038-0.021-0.071-0.036-0.109c0,0-0.025,0.001-0.063,0.004c-0.016-0.038-0.021-0.072-0.037-0.111    c0,0-0.024,0.001-0.063,0.004c-0.015-0.038-0.021-0.072-0.035-0.11c0,0-0.025,0.001-0.063,0.004    c-0.015-0.038-0.021-0.072-0.036-0.11c0,0-0.025,0.001-0.063,0.004c-0.016-0.038-0.021-0.072-0.037-0.11    c0,0-0.024,0.001-0.063,0.004c-0.016-0.038-0.021-0.072-0.036-0.11c0,0-0.024,0.001-0.063,0.004    c-0.014-0.038-0.021-0.072-0.035-0.111c0,0-0.025,0.001-0.063,0.004c-0.016-0.038-0.021-0.071-0.037-0.109    c0,0-0.024,0.001-0.063,0.004c-0.016-0.038-0.021-0.072-0.036-0.11c0,0-0.024,0.001-0.063,0.004    c-0.015-0.038-0.021-0.072-0.035-0.11c0,0-0.024,0.001-0.063,0.004c-0.015-0.038-0.021-0.072-0.036-0.11    c0,0-0.025,0.001-0.063,0.004c-0.015-0.038-0.021-0.072-0.036-0.11c0,0-0.023,0.001-0.063,0.004    c-0.016-0.038-0.021-0.072-0.037-0.11c0,0-0.024,0.001-0.063,0.004c-0.016-0.038-0.021-0.072-0.036-0.11    c0,0-0.024,0.001-0.063,0.004c-0.014-0.038-0.021-0.072-0.035-0.11c0,0-0.025,0.001-0.063,0.004    c-0.016-0.038-0.021-0.072-0.037-0.11c0,0-0.023,0.001-0.063,0.004c-0.016-0.038-0.021-0.072-0.036-0.11    c0,0-0.024,0.001-0.063,0.004c-0.015-0.038-0.021-0.072-0.035-0.11c0,0-0.025,0.001-0.063,0.004    c-0.015-0.038-0.021-0.072-0.036-0.11c0,0-0.025,0.001-0.063,0.004c-0.016-0.038-0.021-0.072-0.036-0.11    c0,0-0.024,0.001-0.063,0.004c-0.015-0.038-0.021-0.072-0.035-0.11c0,0-0.024,0.001-0.063,0.004    c-0.015-0.038-0.021-0.072-0.036-0.11c0,0-0.025,0.001-0.064,0.004c-0.014-0.038-0.021-0.072-0.035-0.11    c0,0-0.025,0.001-0.063,0.004c-0.015-0.038-0.021-0.072-0.036-0.111c0,0-0.023,0.001-0.063,0.004    c-0.016-0.038-0.021-0.072-0.036-0.11c0,0-0.024,0.001-0.063,0.004c-0.015-0.038-0.021-0.072-0.035-0.11    c0,0-0.025,0.001-0.063,0.004c-0.015-0.038-0.021-0.072-0.036-0.11c0,0-0.025,0.001-0.063,0.004    c-0.016-0.038-0.021-0.072-0.036-0.11c0,0-0.024,0.001-0.063,0.004c-0.015-0.038-0.021-0.072-0.035-0.11    c0,0-0.025,0.001-0.063,0.004c-0.015-0.038-0.021-0.072-0.036-0.11c0,0-0.025,0.001-0.063,0.004    c-0.016-0.038-0.021-0.072-0.036-0.11c0,0-0.025,0.001-0.063,0.004c-0.015-0.038-0.021-0.072-0.035-0.11    c0,0-0.025,0.001-0.063,0.004c-0.015-0.038-0.021-0.072-0.036-0.11c0,0-0.023,0.001-0.063,0.004    c-0.016-0.038-0.021-0.072-0.037-0.11c0,0-0.024,0.001-0.063,0.004c-0.015-0.038-0.021-0.072-0.036-0.111    c0,0-0.023,0.001-0.063,0.004c-0.016-0.038-0.021-0.072-0.036-0.11c0,0-0.024,0.001-0.063,0.004    c-0.015-0.038-0.021-0.072-0.035-0.111c0,0-0.024,0.001-0.063,0.004c-0.015-0.038-0.021-0.071-0.036-0.109    c0,0-0.025,0.001-0.064,0.004c-0.015-0.038-0.021-0.072-0.035-0.111c0,0-0.025,0.001-0.063,0.004    c-0.015-0.038-0.021-0.072-0.036-0.11c0,0-0.023,0.001-0.063,0.004c-0.016-0.038-0.021-0.072-0.036-0.11    c0,0-0.024,0.001-0.063,0.004c-0.015-0.038-0.021-0.072-0.035-0.11c0,0-0.025,0.001-0.063,0.004    c-0.015-0.038-0.021-0.072-0.036-0.111c0,0-0.025,0.001-0.063,0.004c-0.016-0.038-0.021-0.072-0.036-0.11    c0,0-0.025,0.001-0.063,0.004c-0.015-0.038-0.021-0.072-0.035-0.11c0,0-0.025,0.001-0.063,0.004    c-0.015-0.038-0.021-0.072-0.036-0.11c0,0-0.025,0.001-0.063,0.004c-0.016-0.038-0.021-0.072-0.037-0.11    c0,0-0.023,0.001-0.063,0.004c-0.015-0.038-0.021-0.072-0.035-0.11c0,0-0.025,0.001-0.063,0.004    c-0.015-0.038-0.021-0.072-0.036-0.11c0,0-0.025,0.001-0.063,0.004c-0.016-0.038-0.021-0.072-0.037-0.11    c0,0-0.024,0.001-0.063,0.004c-0.016-0.038-0.021-0.072-0.036-0.11c0,0-0.024,0.001-0.063,0.004    c-0.014-0.038-0.021-0.072-0.035-0.11c0,0-0.025,0.001-0.064,0.004c-0.015-0.038-0.021-0.072-0.035-0.11    c0,0-0.024,0.001-0.063,0.004c-0.015-0.038-0.021-0.072-0.036-0.11c0,0-0.025,0.001-0.063,0.004    c-0.016-0.038-0.021-0.072-0.037-0.11c0,0-0.024,0.001-0.063,0.004c-0.015-0.038-0.021-0.072-0.035-0.11    c0,0-0.024,0.001-0.063,0.004c-0.015-0.038-0.021-0.072-0.036-0.11c0,0-0.025,0.001-0.064,0.004    c-0.015-0.038-0.021-0.072-0.035-0.11c0,0-0.024,0.001-0.063,0.004c-0.015-0.038-0.021-0.072-0.036-0.111    c0,0-0.025,0.001-0.063,0.004c-0.016-0.038-0.021-0.072-0.036-0.11c0,0-0.025,0.001-0.063,0.004    c-0.015-0.038-0.021-0.072-0.035-0.11c0,0-0.025,0.001-0.063,0.004c-0.015-0.038-0.021-0.072-0.036-0.11    c0,0-0.025,0.001-0.063,0.004c-0.016-0.038-0.021-0.072-0.037-0.11c0,0-0.024,0.001-0.063,0.004    c-0.015-0.038-0.021-0.072-0.035-0.11c0,0-0.025,0.001-0.063,0.004c-0.015-0.038-0.021-0.072-0.036-0.11    c0,0-0.025,0.001-0.063,0.004c-0.016-0.038-0.021-0.072-0.037-0.11c0,0-0.024,0.001-0.063,0.004    c-0.016-0.038-0.021-0.072-0.036-0.11c0,0-0.024,0.001-0.063,0.004c-0.014-0.038-0.021-0.072-0.035-0.11    c0,0-0.025,0.001-0.063,0.004c-0.016-0.038-0.021-0.072-0.037-0.11c0,0-0.024,0.001-0.063,0.004    c-0.016-0.038-0.021-0.072-0.036-0.11c0,0-0.024,0.001-0.063,0.004c-0.015-0.038-0.021-0.072-0.035-0.11    c0,0-0.025,0.001-0.063,0.004c-0.015-0.038-0.021-0.072-0.036-0.111c0,0-0.025,0.001-0.063,0.004    c-0.016-0.038-0.021-0.071-0.036-0.109c0,0-0.024,0.001-0.063,0.004c-0.015-0.038-0.021-0.072-0.035-0.111    c0,0-0.024,0.001-0.063,0.004c-0.015-0.038-0.021-0.072-0.036-0.11c0,0-0.025,0.001-0.064,0.004    c-0.014-0.038-0.021-0.072-0.035-0.111c0,0-0.025,0.001-0.063,0.004c-0.016-0.038-0.021-0.072-0.037-0.11    c0,0-0.023,0.001-0.063,0.004c-0.016-0.038-0.021-0.072-0.036-0.11c0,0-0.024,0.001-0.063,0.004    c-0.015-0.038-0.021-0.072-0.035-0.11c0,0-0.025,0.001-0.063,0.004c-0.015-0.038-0.021-0.072-0.036-0.111    c0,0-0.025,0.001-0.063,0.004c-0.016-0.038-0.021-0.071-0.036-0.109c0,0-0.024,0.001-0.063,0.004    c-0.015-0.038-0.021-0.072-0.035-0.111c0,0-0.025,0.001-0.063,0.004c-0.015-0.038-0.021-0.072-0.036-0.11    c0,0-0.025,0.001-0.063,0.004c-0.016-0.038-0.021-0.072-0.036-0.11c0,0-0.025,0.001-0.063,0.004    c-0.015-0.038-0.021-0.072-0.035-0.11c0,0-1.97,0-3.97,3c-0.991-0.991-4-1-4.999-1c-0.97,0-3.808,0.017-4.886,0.918    c-0.017-0.018-0.035-0.036-0.051-0.054c-0.035-0.036-0.069-0.075-0.104-0.11c-0.032-0.034-0.064-0.07-0.096-0.102    c-0.034-0.036-0.068-0.074-0.102-0.109c-0.033-0.034-0.065-0.071-0.098-0.104c-0.034-0.037-0.069-0.075-0.103-0.11    c-0.032-0.034-0.065-0.071-0.097-0.104c-0.034-0.036-0.068-0.075-0.103-0.109c-0.031-0.033-0.063-0.069-0.094-0.101    c-0.036-0.038-0.072-0.078-0.107-0.114c-0.031-0.033-0.063-0.068-0.093-0.1c-0.034-0.036-0.068-0.074-0.103-0.109    C25.817,17.005,24.478,17,24.478,17c-1.07,2.685-0.233,4.507-0.031,5c-1,1-2.004,2-2.004,7c0,2.229,0.726,3.959,1.913,5.239    c0.033,0.036,0.067,0.071,0.101,0.108c0.032,0.035,0.067,0.07,0.1,0.106c0.033,0.036,0.066,0.069,0.1,0.104    c0.033,0.037,0.067,0.072,0.101,0.108c0.031,0.035,0.065,0.067,0.097,0.104c0.032,0.035,0.067,0.07,0.1,0.105    c0.031,0.035,0.064,0.068,0.096,0.104c0.034,0.039,0.069,0.074,0.104,0.111c0.032,0.035,0.065,0.069,0.098,0.104    c0.033,0.037,0.068,0.074,0.102,0.109c0.031,0.035,0.064,0.068,0.096,0.103c0.034,0.038,0.07,0.075,0.104,0.112    c0.031,0.035,0.064,0.067,0.097,0.103c0.033,0.037,0.067,0.071,0.1,0.106c0.031,0.035,0.064,0.068,0.096,0.103    c0.034,0.039,0.07,0.076,0.106,0.114c0.03,0.033,0.063,0.065,0.094,0.1c0.033,0.037,0.067,0.072,0.101,0.107    c0.032,0.037,0.066,0.072,0.1,0.107c0.033,0.037,0.067,0.072,0.101,0.108c0.032,0.034,0.065,0.067,0.097,0.103    c0.033,0.037,0.067,0.072,0.1,0.107c0.032,0.036,0.066,0.07,0.099,0.105c0.032,0.037,0.066,0.07,0.1,0.106    c0.032,0.035,0.065,0.069,0.098,0.104c0.034,0.037,0.069,0.073,0.104,0.109c0.031,0.036,0.064,0.069,0.097,0.104    c0.032,0.037,0.066,0.07,0.099,0.105c0.033,0.037,0.067,0.072,0.101,0.107c0.032,0.035,0.065,0.07,0.098,0.104    c0.033,0.037,0.068,0.072,0.103,0.109c0.032,0.034,0.065,0.067,0.097,0.104c0.033,0.035,0.067,0.07,0.1,0.106    c0.032,0.034,0.065,0.069,0.098,0.104c0.033,0.036,0.068,0.071,0.102,0.108c0.032,0.035,0.066,0.069,0.099,0.104    c0.032,0.035,0.066,0.069,0.099,0.104c0.033,0.037,0.067,0.071,0.101,0.106c0.033,0.037,0.067,0.072,0.101,0.108    c0.031,0.035,0.064,0.067,0.096,0.103c0.033,0.037,0.069,0.074,0.104,0.111c0.032,0.034,0.065,0.068,0.098,0.104    c0.032,0.037,0.066,0.07,0.1,0.105c0.031,0.035,0.063,0.067,0.094,0.103c0.034,0.038,0.069,0.073,0.104,0.11    c0.032,0.037,0.067,0.071,0.1,0.107c0.033,0.037,0.068,0.072,0.102,0.107c0.031,0.035,0.064,0.067,0.095,0.103    c0.033,0.037,0.068,0.072,0.102,0.108c0.032,0.035,0.065,0.068,0.097,0.104c0.033,0.036,0.067,0.071,0.1,0.107    c0.012,0.013,0.021,0.025,0.033,0.039c-0.008,0.103-0.015,0.203-0.015,0.298c-0.77,0.343-2.483,0.677-4.049-0.111    c-0.011-0.011-0.021-0.021-0.032-0.03c-0.036-0.039-0.066-0.074-0.105-0.113c-0.034-0.034-0.062-0.068-0.098-0.104    c-0.034-0.035-0.063-0.07-0.1-0.105c-0.034-0.036-0.063-0.07-0.1-0.106c-0.033-0.036-0.062-0.069-0.098-0.104    c-0.035-0.037-0.064-0.071-0.102-0.108c-0.033-0.036-0.062-0.069-0.097-0.104c-0.033-0.035-0.061-0.067-0.096-0.104    c-0.037-0.038-0.068-0.075-0.107-0.113c-0.033-0.035-0.06-0.066-0.095-0.102c-0.034-0.036-0.063-0.07-0.099-0.105    c-0.034-0.037-0.063-0.07-0.1-0.106c-0.034-0.036-0.063-0.07-0.1-0.107c-0.035-0.036-0.065-0.071-0.102-0.108    c-0.033-0.034-0.061-0.067-0.097-0.104c-0.034-0.035-0.063-0.068-0.099-0.105c-0.035-0.037-0.064-0.07-0.101-0.107    c-0.033-0.035-0.061-0.068-0.096-0.104c-0.035-0.037-0.064-0.071-0.102-0.108c-0.034-0.036-0.063-0.07-0.099-0.106    c-0.034-0.035-0.063-0.07-0.1-0.105c-0.035-0.036-0.064-0.071-0.101-0.107c-0.034-0.035-0.063-0.068-0.099-0.105    c-0.034-0.034-0.062-0.068-0.098-0.104c-0.034-0.035-0.063-0.07-0.1-0.107c-0.034-0.034-0.063-0.068-0.099-0.104    c-0.498-0.528-1.269-1.09-2.33-1.09c0,0-1.368-0.126-0.697,0.507c0.026,0.033,0.059,0.068,0.1,0.105    c0.026,0.033,0.059,0.068,0.1,0.107c0.026,0.033,0.059,0.068,0.1,0.107c0.026,0.031,0.059,0.066,0.1,0.105    c0.026,0.032,0.059,0.066,0.099,0.104c0.026,0.032,0.059,0.067,0.1,0.106c0.026,0.031,0.058,0.066,0.098,0.104    c0.027,0.032,0.06,0.069,0.102,0.108c0.026,0.03,0.056,0.064,0.095,0.102c0.027,0.034,0.061,0.07,0.103,0.111    c0.026,0.031,0.058,0.066,0.099,0.104c0.027,0.034,0.06,0.069,0.101,0.107c0.026,0.033,0.059,0.068,0.099,0.105    c0.026,0.032,0.059,0.067,0.099,0.104c0.026,0.032,0.059,0.067,0.1,0.106c0.026,0.032,0.059,0.067,0.1,0.106    c0.026,0.032,0.059,0.067,0.1,0.104c0.025,0.032,0.055,0.065,0.094,0.103c0.284,0.433,0.596,0.952,0.912,1.584    c0,0,0.298,0.812,1.098,1.618c0.035,0.037,0.067,0.072,0.104,0.109c0.032,0.035,0.062,0.068,0.096,0.104    c0.034,0.036,0.066,0.071,0.103,0.108c0.034,0.035,0.064,0.07,0.099,0.105c0.033,0.035,0.063,0.07,0.098,0.105    c0.034,0.035,0.064,0.069,0.1,0.104c0.033,0.035,0.063,0.069,0.097,0.104s0.065,0.071,0.101,0.107    c0.034,0.036,0.065,0.072,0.102,0.107c0.031,0.035,0.06,0.066,0.093,0.101c0.035,0.038,0.068,0.075,0.105,0.113    c0.034,0.034,0.064,0.069,0.099,0.104c0.034,0.036,0.064,0.071,0.1,0.106c0.033,0.034,0.063,0.069,0.097,0.104    c0.033,0.035,0.064,0.07,0.099,0.105c0.035,0.037,0.067,0.074,0.104,0.111c0.032,0.033,0.061,0.065,0.094,0.101    c0.035,0.036,0.066,0.073,0.103,0.108c0.033,0.035,0.062,0.069,0.097,0.104c0.033,0.035,0.063,0.07,0.099,0.106    c0.034,0.035,0.065,0.07,0.102,0.107c0.033,0.035,0.063,0.069,0.098,0.104c0.035,0.037,0.067,0.074,0.105,0.113    c0.031,0.031,0.059,0.063,0.091,0.098c0.036,0.037,0.069,0.074,0.107,0.113c0.031,0.033,0.06,0.065,0.093,0.101    c0.035,0.037,0.067,0.073,0.104,0.11c0.032,0.033,0.062,0.067,0.096,0.103c0.034,0.036,0.065,0.071,0.102,0.108    c0.033,0.035,0.063,0.07,0.099,0.104c0.034,0.037,0.066,0.073,0.102,0.108c0.033,0.035,0.063,0.068,0.097,0.104    c0.034,0.036,0.065,0.071,0.102,0.108c0.033,0.033,0.062,0.068,0.097,0.104c0.034,0.036,0.065,0.072,0.102,0.108    c0.033,0.035,0.063,0.069,0.098,0.104c0.034,0.035,0.065,0.07,0.101,0.106c0.034,0.036,0.064,0.071,0.1,0.106    c0.034,0.035,0.065,0.071,0.102,0.107c0.032,0.034,0.061,0.066,0.094,0.102c0.036,0.037,0.068,0.074,0.106,0.112    c0.031,0.033,0.059,0.065,0.092,0.099c0.036,0.039,0.07,0.078,0.109,0.117c0.031,0.031,0.059,0.063,0.092,0.098    c0.034,0.037,0.065,0.072,0.102,0.109c0.033,0.034,0.063,0.069,0.098,0.104c0.034,0.036,0.064,0.071,0.101,0.106    c0.034,0.037,0.066,0.072,0.103,0.109c0.033,0.034,0.063,0.068,0.097,0.104c0.033,0.035,0.063,0.069,0.098,0.105    c0.034,0.035,0.064,0.07,0.1,0.105c0.033,0.035,0.063,0.07,0.097,0.104c0.036,0.038,0.069,0.075,0.107,0.113    c0.03,0.032,0.057,0.063,0.088,0.095c0.037,0.039,0.071,0.078,0.11,0.118c0.031,0.033,0.06,0.065,0.093,0.099    c0.035,0.037,0.067,0.073,0.104,0.11c0.032,0.034,0.062,0.067,0.095,0.103c0.035,0.037,0.066,0.072,0.102,0.108    c0.035,0.037,0.066,0.073,0.103,0.11c0.03,0.031,0.057,0.063,0.089,0.096c0.038,0.04,0.073,0.08,0.113,0.12    c0.03,0.032,0.057,0.063,0.088,0.095c0.035,0.037,0.067,0.073,0.104,0.11c0.034,0.036,0.064,0.071,0.1,0.106    c0.034,0.035,0.064,0.07,0.1,0.105c0.034,0.036,0.064,0.07,0.1,0.107c0.032,0.032,0.061,0.065,0.094,0.101    c0.036,0.039,0.07,0.077,0.109,0.116c0.03,0.031,0.057,0.063,0.089,0.096c0.036,0.039,0.069,0.076,0.107,0.115    c0.033,0.035,0.063,0.068,0.099,0.104c0.032,0.035,0.062,0.068,0.096,0.104c0.033,0.035,0.063,0.07,0.099,0.105    c0.035,0.037,0.067,0.073,0.104,0.11c0.033,0.034,0.063,0.069,0.098,0.104c0.034,0.035,0.065,0.07,0.101,0.107    c0.033,0.035,0.063,0.068,0.099,0.104c0.031,0.033,0.06,0.066,0.093,0.102c0.036,0.038,0.07,0.076,0.108,0.115    c0.032,0.033,0.061,0.066,0.095,0.102c0.034,0.036,0.065,0.071,0.101,0.107c0.035,0.037,0.066,0.072,0.103,0.109    c0.032,0.034,0.061,0.067,0.095,0.103c0.033,0.034,0.063,0.069,0.098,0.104c0.034,0.036,0.065,0.072,0.102,0.108    c0.034,0.035,0.066,0.072,0.102,0.107c0.033,0.035,0.062,0.069,0.096,0.104c0.034,0.036,0.065,0.071,0.101,0.106    c0.035,0.037,0.066,0.073,0.104,0.11c0.03,0.032,0.059,0.063,0.09,0.099c0.037,0.037,0.07,0.076,0.107,0.113    c0.032,0.034,0.063,0.067,0.096,0.102c0.033,0.037,0.064,0.072,0.101,0.107c0.034,0.036,0.063,0.071,0.101,0.106    c0.031,0.034,0.062,0.067,0.096,0.104c0.035,0.037,0.068,0.074,0.106,0.112c0.03,0.032,0.058,0.063,0.091,0.097    c0.035,0.039,0.069,0.077,0.107,0.116c0.033,0.035,0.063,0.069,0.1,0.104c0.03,0.033,0.059,0.064,0.09,0.099    c0.037,0.039,0.071,0.078,0.111,0.117c0.031,0.034,0.061,0.067,0.096,0.101c0.031,0.035,0.063,0.07,0.098,0.105    c0.031,0.033,0.063,0.068,0.096,0.104c0.036,0.039,0.07,0.077,0.11,0.116c0.028,0.032,0.057,0.063,0.088,0.097    c0.034,0.036,0.067,0.073,0.104,0.11c0.032,0.035,0.063,0.069,0.099,0.104c0.034,0.037,0.063,0.071,0.101,0.106    c0.033,0.036,0.063,0.071,0.1,0.106c0.033,0.035,0.063,0.07,0.101,0.105c0.033,0.037,0.063,0.072,0.101,0.107    c0.032,0.035,0.063,0.068,0.096,0.104c0.035,0.037,0.068,0.073,0.104,0.11c0.033,0.034,0.063,0.069,0.099,0.104    c0.031,0.034,0.063,0.069,0.098,0.104c0.033,0.036,0.064,0.071,0.102,0.108c0.033,0.035,0.063,0.069,0.1,0.104    c0.033,0.036,0.063,0.071,0.1,0.106c0.033,0.035,0.064,0.069,0.1,0.105c0.033,0.035,0.063,0.07,0.101,0.105    c0.032,0.035,0.063,0.069,0.099,0.104c0.033,0.037,0.065,0.073,0.102,0.108c0.035,0.037,0.066,0.072,0.103,0.109    c0.031,0.032,0.06,0.064,0.093,0.098c0.034,0.037,0.066,0.074,0.104,0.111c0.03,0.033,0.06,0.066,0.093,0.102    c0.037,0.039,0.071,0.076,0.11,0.117c0.03,0.033,0.061,0.065,0.094,0.101c0.034,0.035,0.063,0.069,0.101,0.104    c0.032,0.035,0.062,0.068,0.096,0.104c0.033,0.036,0.064,0.071,0.102,0.108c0.034,0.035,0.065,0.072,0.102,0.107    c0.033,0.035,0.063,0.07,0.1,0.105c0.035,0.037,0.068,0.074,0.105,0.111c0.031,0.033,0.061,0.066,0.094,0.101    c0.031,0.034,0.063,0.069,0.097,0.104c0.035,0.036,0.068,0.073,0.106,0.111c0.029,0.032,0.058,0.064,0.09,0.098    c0.037,0.039,0.07,0.077,0.109,0.116c0.03,0.032,0.059,0.063,0.09,0.097c0.035,0.039,0.068,0.075,0.106,0.114    c0.03,0.032,0.06,0.063,0.091,0.099c0.036,0.039,0.069,0.076,0.108,0.115c0.032,0.033,0.062,0.067,0.097,0.104    c0.033,0.035,0.063,0.07,0.1,0.105c0.033,0.035,0.063,0.07,0.101,0.106c0.034,0.036,0.065,0.071,0.103,0.108    c0.033,0.035,0.063,0.067,0.096,0.103s0.063,0.069,0.098,0.104c0.035,0.037,0.066,0.071,0.104,0.108    c0.033,0.035,0.063,0.07,0.099,0.106c0.034,0.035,0.063,0.07,0.101,0.104c0.032,0.035,0.063,0.07,0.099,0.104    c0.032,0.035,0.062,0.07,0.097,0.104c0.036,0.038,0.07,0.076,0.107,0.115c0.031,0.032,0.06,0.063,0.092,0.097    c0.035,0.038,0.068,0.075,0.105,0.113c0.032,0.034,0.063,0.068,0.098,0.104c0.033,0.035,0.063,0.07,0.1,0.105    c0.033,0.036,0.063,0.07,0.1,0.105c0.031,0.035,0.061,0.067,0.095,0.104c0.036,0.038,0.069,0.077,0.108,0.116    c0.03,0.032,0.059,0.063,0.09,0.096c0.037,0.039,0.07,0.077,0.108,0.116c0.031,0.031,0.06,0.064,0.093,0.098    c0.033,0.036,0.064,0.072,0.102,0.109c0.033,0.035,0.063,0.07,0.099,0.105c0.034,0.035,0.065,0.07,0.103,0.106    c0.033,0.037,0.066,0.073,0.103,0.11c0.031,0.033,0.06,0.065,0.093,0.1c0.036,0.038,0.069,0.075,0.107,0.113    c0.031,0.033,0.061,0.066,0.094,0.101c0.032,0.035,0.063,0.069,0.098,0.104c0.035,0.037,0.065,0.072,0.103,0.108    c0.034,0.036,0.063,0.071,0.101,0.106c0.033,0.035,0.063,0.07,0.1,0.105c0.033,0.036,0.064,0.07,0.1,0.106    c0.033,0.034,0.064,0.069,0.1,0.106c0.033,0.034,0.063,0.069,0.101,0.105c0.033,0.035,0.063,0.07,0.101,0.105    c0.032,0.035,0.063,0.07,0.1,0.106c0.033,0.035,0.063,0.069,0.1,0.104c0.033,0.037,0.063,0.07,0.1,0.106    c0.033,0.035,0.063,0.069,0.099,0.104c0.033,0.035,0.063,0.07,0.099,0.105c0.034,0.037,0.066,0.074,0.104,0.111    c0.032,0.035,0.063,0.068,0.098,0.104c0.033,0.035,0.063,0.07,0.099,0.105c0.031,0.033,0.061,0.066,0.095,0.101    c0.036,0.039,0.069,0.077,0.108,0.116c0.03,0.032,0.058,0.064,0.09,0.098c0.037,0.038,0.07,0.076,0.109,0.116    c0.03,0.032,0.059,0.063,0.09,0.097c0.036,0.039,0.07,0.076,0.108,0.115c0.032,0.033,0.062,0.066,0.094,0.1    c0.032,0.035,0.062,0.069,0.097,0.104c0.035,0.036,0.066,0.073,0.104,0.11c0.034,0.035,0.064,0.07,0.1,0.104    c0.035,0.038,0.068,0.074,0.105,0.112c0.029,0.031,0.059,0.063,0.09,0.098c0.034,0.035,0.064,0.071,0.102,0.107    c0.035,0.035,0.065,0.072,0.103,0.107c0.033,0.035,0.063,0.07,0.101,0.105c0.032,0.036,0.063,0.07,0.1,0.107    c0.033,0.035,0.063,0.069,0.1,0.104c0.034,0.038,0.067,0.074,0.104,0.11c0.031,0.035,0.062,0.068,0.096,0.103    c0.031,0.034,0.063,0.068,0.096,0.103c0.034,0.037,0.064,0.072,0.102,0.107c0.033,0.037,0.063,0.072,0.101,0.108    c0.034,0.036,0.063,0.071,0.101,0.106c0.031,0.033,0.061,0.066,0.094,0.102c0.035,0.037,0.066,0.074,0.105,0.111    c0.033,0.037,0.065,0.072,0.103,0.109c0.032,0.035,0.063,0.069,0.099,0.104c0.032,0.035,0.063,0.069,0.098,0.104    c0.033,0.035,0.063,0.07,0.101,0.104c0.032,0.037,0.063,0.072,0.101,0.107c0.032,0.035,0.063,0.07,0.098,0.105    c0.033,0.035,0.063,0.068,0.098,0.104c0.034,0.036,0.064,0.072,0.102,0.108c0.033,0.036,0.065,0.073,0.104,0.11    c0.033,0.035,0.063,0.068,0.1,0.104c0.03,0.034,0.061,0.066,0.094,0.102c0.035,0.037,0.065,0.073,0.104,0.109    c0.033,0.036,0.063,0.07,0.1,0.105c0.034,0.037,0.065,0.074,0.104,0.11c0.031,0.034,0.061,0.067,0.095,0.101    c0.035,0.039,0.067,0.074,0.104,0.111c0.031,0.033,0.059,0.065,0.091,0.098c0.036,0.039,0.067,0.076,0.106,0.115    c0.031,0.033,0.062,0.066,0.096,0.102c0.033,0.037,0.063,0.072,0.101,0.107c0.034,0.037,0.065,0.072,0.103,0.108    c0.033,0.035,0.063,0.069,0.1,0.104c0.031,0.035,0.061,0.067,0.096,0.103c0.033,0.038,0.065,0.073,0.104,0.11    c0.033,0.035,0.063,0.07,0.097,0.104c0.034,0.036,0.065,0.071,0.103,0.108c0.033,0.035,0.063,0.07,0.1,0.104    c0.033,0.036,0.063,0.071,0.1,0.107c0.033,0.034,0.063,0.069,0.101,0.104c0.032,0.036,0.063,0.07,0.099,0.106    c0.033,0.034,0.063,0.069,0.1,0.106c0.033,0.034,0.063,0.069,0.1,0.104c0.033,0.036,0.064,0.071,0.1,0.106    c0.034,0.035,0.064,0.07,0.1,0.105c0.033,0.035,0.063,0.068,0.098,0.104c0.033,0.037,0.064,0.071,0.102,0.107    c0.033,0.037,0.065,0.073,0.103,0.11c0.034,0.036,0.065,0.071,0.103,0.106c0.031,0.034,0.062,0.068,0.096,0.104    c0.033,0.035,0.063,0.07,0.101,0.107c0.033,0.034,0.063,0.069,0.099,0.104c0.032,0.034,0.062,0.067,0.096,0.103    c0.035,0.037,0.066,0.073,0.104,0.11c0.034,0.036,0.065,0.071,0.102,0.106c0.033,0.035,0.063,0.07,0.099,0.105    c0.034,0.036,0.065,0.072,0.103,0.107c0.031,0.035,0.062,0.068,0.095,0.103c0.034,0.037,0.065,0.072,0.103,0.108    c0.033,0.035,0.063,0.07,0.1,0.107c0.033,0.034,0.063,0.069,0.101,0.104c0.034,0.036,0.065,0.073,0.103,0.11    c0.031,0.032,0.061,0.065,0.094,0.1c0.035,0.037,0.068,0.074,0.105,0.111c0.03,0.033,0.059,0.066,0.092,0.101    c0.035,0.037,0.066,0.073,0.104,0.108c0.034,0.037,0.064,0.071,0.1,0.107c0.034,0.035,0.064,0.07,0.101,0.105    c0.034,0.035,0.063,0.07,0.1,0.105c0.033,0.036,0.063,0.07,0.101,0.105c0.033,0.035,0.063,0.07,0.1,0.107    c0.033,0.034,0.063,0.069,0.1,0.105c0.033,0.035,0.063,0.07,0.101,0.105c0.032,0.035,0.063,0.07,0.1,0.106    c0.032,0.034,0.062,0.067,0.097,0.104c0.033,0.034,0.063,0.069,0.1,0.104c0.033,0.037,0.064,0.073,0.102,0.108    c0.035,0.037,0.067,0.074,0.104,0.11c0.032,0.035,0.063,0.069,0.098,0.104c0.033,0.035,0.063,0.07,0.099,0.104    c0.031,0.034,0.061,0.067,0.095,0.102c0.034,0.037,0.065,0.074,0.104,0.111c0.032,0.036,0.063,0.071,0.098,0.106    c0.035,0.036,0.064,0.071,0.102,0.106c0.033,0.036,0.064,0.071,0.102,0.108c0.033,0.034,0.063,0.067,0.098,0.103    c0.033,0.037,0.064,0.072,0.102,0.108c0.031,0.034,0.062,0.067,0.094,0.103c0.035,0.035,0.066,0.072,0.104,0.108    c0.034,0.036,0.064,0.071,0.1,0.106s0.064,0.07,0.101,0.105c0.034,0.036,0.063,0.071,0.1,0.106    c0.032,0.034,0.062,0.067,0.097,0.104c0.035,0.037,0.067,0.074,0.105,0.112c0.031,0.033,0.061,0.066,0.094,0.1    c0.034,0.038,0.067,0.075,0.105,0.113c0.501,0.532,1.223,1.07,2.216,1.393c0,0.017,0,0.051,0,0.051h0.101c0,0.068,0,0.105,0,0.105    h0.1c0,0.068,0,0.106,0,0.106h0.1c0,0.067,0,0.106,0,0.106h0.1c0,0.067,0,0.105,0,0.105h0.101c0,0.068,0,0.105,0,0.105h0.101    c0,0.067,0,0.105,0,0.105h0.099c0,0.068,0,0.105,0,0.105h0.1c0,0.068,0,0.106,0,0.106h0.101c0,0.067,0,0.106,0,0.106h0.1    c0,0.067,0,0.105,0,0.105h0.1c0,0.068,0,0.105,0,0.105h0.1c0,0.068,0,0.106,0,0.106h0.1c0,0.068,0,0.105,0,0.105h0.1    c0,0.067,0,0.106,0,0.106h0.101c0,0.067,0,0.105,0,0.105h0.101c0,0.068,0,0.105,0,0.105h0.1c-0.001,0.068-0.001,0.106-0.001,0.106    h0.1c0,0.067,0,0.106,0,0.106h0.101c0,0.067,0,0.105,0,0.105h0.1c0,0.068,0,0.105,0,0.105h0.1c0,0.067,0,0.105,0,0.105h0.101    c0,0.068,0,0.105,0,0.105h0.1c0,0.068,0,0.106,0,0.106h0.101c0,0.068,0,0.106,0,0.106h0.099c0,0.068,0,0.105,0,0.105h0.101    c0,0.068,0,0.105,0,0.105h0.1c0,0.068,0,0.107,0,0.107h0.1c0,0.067,0,0.104,0,0.104h0.1c0,0.067,0,0.106,0,0.106h0.1    c0,0.067,0,0.105,0,0.105h0.1c0,0.068,0,0.105,0,0.105h0.1c0,0.068,0,0.106,0,0.106h0.101c0,0.067,0,0.106,0,0.106h0.099    c0,0.067,0,0.104,0,0.104h0.101c0,0.068,0,0.106,0,0.106h0.1c0,0.068,0,0.105,0,0.105h0.101c0,0.068,0,0.106,0,0.106h0.1    c0,0.067,0,0.106,0,0.106h4h3.996v-7c0-0.791-0.438-2.513-1-3C70.743,68.508,74.375,66,74.375,61z" fill="url(#SVGID_3_)"/></g></g><path d="M37.441,47h-3.996h-4c0,0,0.011-2.373,0-4c-5.473,1.178-7-3-7-3c-1-2-2-3-2-3c-2-1.188,0-1,0-1  c2,0,3,2,3,2c1.755,2.98,4.878,2.5,6,2c0-1,0.438-2.512,1-3c-4.368-0.492-8.004-3-8.004-8s1.004-6,2.004-7  c-0.202-0.493-1.039-2.315,0.031-5c0,0,1.965,0,3.965,3c0.991-0.991,4-1,5.001-1c0.998,0,4.008,0.009,4.998,1c2-3,3.97-3,3.97-3  c1.069,2.685,0.233,4.507,0.03,5c1,1,2,2,2,7s-3.631,7.508-8,8c0.563,0.488,1,2.209,1,3V47z" fill="#FFFFFF" id="Cat_2_"/></svg>